<svg aria-roledescription="er" role="graphics-document document" viewBox="0 0 567.242431640625 840" style="max-width: 567.242px; background-color: white;" xmlns:xlink="http://www.w3.org/1999/xlink" xmlns="http://www.w3.org/2000/svg" width="100%" id="my-svg"><style>#my-svg{font-family:"trebuchet ms",verdana,arial,sans-serif;font-size:16px;fill:#000000;}#my-svg .error-icon{fill:#552222;}#my-svg .error-text{fill:#552222;stroke:#552222;}#my-svg .edge-thickness-normal{stroke-width:2px;}#my-svg .edge-thickness-thick{stroke-width:3.5px;}#my-svg .edge-pattern-solid{stroke-dasharray:0;}#my-svg .edge-pattern-dashed{stroke-dasharray:3;}#my-svg .edge-pattern-dotted{stroke-dasharray:2;}#my-svg .marker{fill:#000000;stroke:#000000;}#my-svg .marker.cross{stroke:#000000;}#my-svg svg{font-family:"trebuchet ms",verdana,arial,sans-serif;font-size:16px;}#my-svg .entityBox{fill:#cde498;stroke:#13540c;}#my-svg .attributeBoxOdd{fill:#ffffff;stroke:#13540c;}#my-svg .attributeBoxEven{fill:#f2f2f2;stroke:#13540c;}#my-svg .relationshipLabelBox{fill:hsl(78.1578947368, 58.4615384615%, 84.5098039216%);opacity:0.7;background-color:hsl(78.1578947368, 58.4615384615%, 84.5098039216%);}#my-svg .relationshipLabelBox rect{opacity:0.5;}#my-svg .relationshipLine{stroke:#000000;}#my-svg .entityTitleText{text-anchor:middle;font-size:18px;fill:#000000;}#my-svg #MD_PARENT_START{fill:#f5f5f5!important;stroke:#000000!important;stroke-width:1;}#my-svg #MD_PARENT_END{fill:#f5f5f5!important;stroke:#000000!important;stroke-width:1;}#my-svg :root{--mermaid-font-family:"trebuchet ms",verdana,arial,sans-serif;}</style><g/><defs><marker orient="auto" markerHeight="240" markerWidth="190" refY="7" refX="0" id="MD_PARENT_START"><path d="M 18,7 L9,13 L1,7 L9,1 Z"/></marker></defs><defs><marker orient="auto" markerHeight="28" markerWidth="20" refY="7" refX="19" id="MD_PARENT_END"><path d="M 18,7 L9,13 L1,7 L9,1 Z"/></marker></defs><defs><marker orient="auto" markerHeight="18" markerWidth="18" refY="9" refX="0" id="ONLY_ONE_START"><path d="M9,0 L9,18 M15,0 L15,18" fill="none" stroke="gray"/></marker></defs><defs><marker orient="auto" markerHeight="18" markerWidth="18" refY="9" refX="18" id="ONLY_ONE_END"><path d="M3,0 L3,18 M9,0 L9,18" fill="none" stroke="gray"/></marker></defs><defs><marker orient="auto" markerHeight="18" markerWidth="30" refY="9" refX="0" id="ZERO_OR_ONE_START"><circle r="6" cy="9" cx="21" fill="white" stroke="gray"/><path d="M9,0 L9,18" fill="none" stroke="gray"/></marker></defs><defs><marker orient="auto" markerHeight="18" markerWidth="30" refY="9" refX="30" id="ZERO_OR_ONE_END"><circle r="6" cy="9" cx="9" fill="white" stroke="gray"/><path d="M21,0 L21,18" fill="none" stroke="gray"/></marker></defs><defs><marker orient="auto" markerHeight="36" markerWidth="45" refY="18" refX="18" id="ONE_OR_MORE_START"><path d="M0,18 Q 18,0 36,18 Q 18,36 0,18 M42,9 L42,27" fill="none" stroke="gray"/></marker></defs><defs><marker orient="auto" markerHeight="36" markerWidth="45" refY="18" refX="27" id="ONE_OR_MORE_END"><path d="M3,9 L3,27 M9,18 Q27,0 45,18 Q27,36 9,18" fill="none" stroke="gray"/></marker></defs><defs><marker orient="auto" markerHeight="36" markerWidth="57" refY="18" refX="18" id="ZERO_OR_MORE_START"><circle r="6" cy="18" cx="48" fill="white" stroke="gray"/><path d="M0,18 Q18,0 36,18 Q18,36 0,18" fill="none" stroke="gray"/></marker></defs><defs><marker orient="auto" markerHeight="36" markerWidth="57" refY="18" refX="39" id="ZERO_OR_MORE_END"><circle r="6" cy="18" cx="9" fill="white" stroke="gray"/><path d="M21,18 Q39,0 57,18 Q39,36 21,18" fill="none" stroke="gray"/></marker></defs><path style="stroke: gray; fill: none;" marker-start="url(#ZERO_OR_ONE_START)" marker-end="url(#ONLY_ONE_END)" d="M295.7278480529785,136.63844489187963L265.5940965016683,151.5320374098997C235.46034495035806,166.42562992791974,175.19284184773764,196.2128149639599,145.0590902964274,219.43974081531326C114.92533874511719,242.66666666666666,114.92533874511719,259.3333333333333,114.92533874511719,267.6666666666667L114.92533874511719,276" class="er relationshipLine"/><path style="stroke: gray; fill: none;" marker-start="url(#ZERO_OR_MORE_START)" marker-end="url(#ZERO_OR_MORE_END)" d="M352.82942205667496,176L350.5778821806113,184.33333333333334C348.3263423045476,192.66666666666666,343.8232625524203,209.33333333333334,345.59304050581403,231.5C347.36281845920774,253.66666666666666,355.4054541181224,281.3333333333333,359.42677194757977,295.1666666666667L363.4480897770371,309" class="er relationshipLine"/><path style="stroke: gray; fill: none;" marker-start="url(#ZERO_OR_ONE_START)" marker-end="url(#ONLY_ONE_END)" d="M389.32018280029297,487L389.32018280029297,500.8333333333333C389.32018280029297,514.6666666666666,389.32018280029297,542.3333333333334,389.32018280029297,564.5C389.32018280029297,586.6666666666666,389.32018280029297,603.3333333333334,389.32018280029297,611.6666666666666L389.32018280029297,620" class="er relationshipLine"/><path style="stroke: gray; fill: none;" marker-start="url(#ZERO_OR_ONE_START)" marker-end="url(#ZERO_OR_ONE_END)" d="M415.1922758235488,309L419.21359365300617,295.1666666666667C423.23491148246353,281.3333333333333,431.2775471413782,253.66666666666666,431.03998818023257,231.5C430.80242921908695,209.33333333333334,422.284675637881,192.66666666666666,418.02579884727794,184.33333333333334L413.76692205667496,176" class="er relationshipLine"/><g transform="translate(20,276 )" id="entity-Climates-a21f503a-9fd6-5bc7-9cd9-e00b3cc6f36e"><rect height="244" width="189.85067749023438" y="0" x="0" class="er entityBox"/><text style="dominant-baseline: middle; text-anchor: middle; font-size: 12px;" transform="translate(94.92533874511719,12)" y="0" x="0" id="text-entity-Climates-a21f503a-9fd6-5bc7-9cd9-e00b3cc6f36e" class="er entityLabel">Climates</text><rect height="22" width="94.92533874511719" y="24" x="0" class="er attributeBoxOdd"/><text style="dominant-baseline: middle; font-size: 10.2px;" transform="translate(5,35)" y="0" x="0" id="text-entity-Climates-a21f503a-9fd6-5bc7-9cd9-e00b3cc6f36e-attr-1-type" class="er entityLabel">TropicalRainforest</text><rect height="22" width="94.92533874511719" y="24" x="94.92533874511719" class="er attributeBoxOdd"/><text style="dominant-baseline: middle; font-size: 10.2px;" transform="translate(99.92533874511719,35)" y="0" x="0" id="text-entity-Climates-a21f503a-9fd6-5bc7-9cd9-e00b3cc6f36e-attr-1-name" class="er entityLabel">TropicalRainforest</text><rect height="22" width="94.92533874511719" y="46" x="0" class="er attributeBoxEven"/><text style="dominant-baseline: middle; font-size: 10.2px;" transform="translate(5,57)" y="0" x="0" id="text-entity-Climates-a21f503a-9fd6-5bc7-9cd9-e00b3cc6f36e-attr-2-type" class="er entityLabel">Tropical</text><rect height="22" width="94.92533874511719" y="46" x="94.92533874511719" class="er attributeBoxEven"/><text style="dominant-baseline: middle; font-size: 10.2px;" transform="translate(99.92533874511719,57)" y="0" x="0" id="text-entity-Climates-a21f503a-9fd6-5bc7-9cd9-e00b3cc6f36e-attr-2-name" class="er entityLabel">Tropical</text><rect height="22" width="94.92533874511719" y="68" x="0" class="er attributeBoxOdd"/><text style="dominant-baseline: middle; font-size: 10.2px;" transform="translate(5,79)" y="0" x="0" id="text-entity-Climates-a21f503a-9fd6-5bc7-9cd9-e00b3cc6f36e-attr-3-type" class="er entityLabel">Subtropical</text><rect height="22" width="94.92533874511719" y="68" x="94.92533874511719" class="er attributeBoxOdd"/><text style="dominant-baseline: middle; font-size: 10.2px;" transform="translate(99.92533874511719,79)" y="0" x="0" id="text-entity-Climates-a21f503a-9fd6-5bc7-9cd9-e00b3cc6f36e-attr-3-name" class="er entityLabel">Subtropical</text><rect height="22" width="94.92533874511719" y="90" x="0" class="er attributeBoxEven"/><text style="dominant-baseline: middle; font-size: 10.2px;" transform="translate(5,101)" y="0" x="0" id="text-entity-Climates-a21f503a-9fd6-5bc7-9cd9-e00b3cc6f36e-attr-4-type" class="er entityLabel">Desert</text><rect height="22" width="94.92533874511719" y="90" x="94.92533874511719" class="er attributeBoxEven"/><text style="dominant-baseline: middle; font-size: 10.2px;" transform="translate(99.92533874511719,101)" y="0" x="0" id="text-entity-Climates-a21f503a-9fd6-5bc7-9cd9-e00b3cc6f36e-attr-4-name" class="er entityLabel">Desert</text><rect height="22" width="94.92533874511719" y="112" x="0" class="er attributeBoxOdd"/><text style="dominant-baseline: middle; font-size: 10.2px;" transform="translate(5,123)" y="0" x="0" id="text-entity-Climates-a21f503a-9fd6-5bc7-9cd9-e00b3cc6f36e-attr-5-type" class="er entityLabel">Temperate</text><rect height="22" width="94.92533874511719" y="112" x="94.92533874511719" class="er attributeBoxOdd"/><text style="dominant-baseline: middle; font-size: 10.2px;" transform="translate(99.92533874511719,123)" y="0" x="0" id="text-entity-Climates-a21f503a-9fd6-5bc7-9cd9-e00b3cc6f36e-attr-5-name" class="er entityLabel">Temperate</text><rect height="22" width="94.92533874511719" y="134" x="0" class="er attributeBoxEven"/><text style="dominant-baseline: middle; font-size: 10.2px;" transform="translate(5,145)" y="0" x="0" id="text-entity-Climates-a21f503a-9fd6-5bc7-9cd9-e00b3cc6f36e-attr-6-type" class="er entityLabel">Mediterranean</text><rect height="22" width="94.92533874511719" y="134" x="94.92533874511719" class="er attributeBoxEven"/><text style="dominant-baseline: middle; font-size: 10.2px;" transform="translate(99.92533874511719,145)" y="0" x="0" id="text-entity-Climates-a21f503a-9fd6-5bc7-9cd9-e00b3cc6f36e-attr-6-name" class="er entityLabel">Mediterranean</text><rect height="22" width="94.92533874511719" y="156" x="0" class="er attributeBoxOdd"/><text style="dominant-baseline: middle; font-size: 10.2px;" transform="translate(5,167)" y="0" x="0" id="text-entity-Climates-a21f503a-9fd6-5bc7-9cd9-e00b3cc6f36e-attr-7-type" class="er entityLabel">SemiArid</text><rect height="22" width="94.92533874511719" y="156" x="94.92533874511719" class="er attributeBoxOdd"/><text style="dominant-baseline: middle; font-size: 10.2px;" transform="translate(99.92533874511719,167)" y="0" x="0" id="text-entity-Climates-a21f503a-9fd6-5bc7-9cd9-e00b3cc6f36e-attr-7-name" class="er entityLabel">SemiArid</text><rect height="22" width="94.92533874511719" y="178" x="0" class="er attributeBoxEven"/><text style="dominant-baseline: middle; font-size: 10.2px;" transform="translate(5,189)" y="0" x="0" id="text-entity-Climates-a21f503a-9fd6-5bc7-9cd9-e00b3cc6f36e-attr-8-type" class="er entityLabel">Subpolar</text><rect height="22" width="94.92533874511719" y="178" x="94.92533874511719" class="er attributeBoxEven"/><text style="dominant-baseline: middle; font-size: 10.2px;" transform="translate(99.92533874511719,189)" y="0" x="0" id="text-entity-Climates-a21f503a-9fd6-5bc7-9cd9-e00b3cc6f36e-attr-8-name" class="er entityLabel">Subpolar</text><rect height="22" width="94.92533874511719" y="200" x="0" class="er attributeBoxOdd"/><text style="dominant-baseline: middle; font-size: 10.2px;" transform="translate(5,211)" y="0" x="0" id="text-entity-Climates-a21f503a-9fd6-5bc7-9cd9-e00b3cc6f36e-attr-9-type" class="er entityLabel">MountainCold</text><rect height="22" width="94.92533874511719" y="200" x="94.92533874511719" class="er attributeBoxOdd"/><text style="dominant-baseline: middle; font-size: 10.2px;" transform="translate(99.92533874511719,211)" y="0" x="0" id="text-entity-Climates-a21f503a-9fd6-5bc7-9cd9-e00b3cc6f36e-attr-9-name" class="er entityLabel">MountainCold</text><rect height="22" width="94.92533874511719" y="222" x="0" class="er attributeBoxEven"/><text style="dominant-baseline: middle; font-size: 10.2px;" transform="translate(5,233)" y="0" x="0" id="text-entity-Climates-a21f503a-9fd6-5bc7-9cd9-e00b3cc6f36e-attr-10-type" class="er entityLabel">Polar</text><rect height="22" width="94.92533874511719" y="222" x="94.92533874511719" class="er attributeBoxEven"/><text style="dominant-baseline: middle; font-size: 10.2px;" transform="translate(99.92533874511719,233)" y="0" x="0" id="text-entity-Climates-a21f503a-9fd6-5bc7-9cd9-e00b3cc6f36e-attr-10-name" class="er entityLabel">Polar</text></g><g transform="translate(231.3979721069336,620 )" id="entity-ConstantTypes-369df7e2-30fe-550e-8187-7dac32f8692a"><rect height="200" width="315.84442138671875" y="0" x="0" class="er entityBox"/><text style="dominant-baseline: middle; text-anchor: middle; font-size: 12px;" transform="translate(157.92221069335938,12)" y="0" x="0" id="text-entity-ConstantTypes-369df7e2-30fe-550e-8187-7dac32f8692a" class="er entityLabel">ConstantTypes</text><rect height="22" width="157.92221069335938" y="24" x="0" class="er attributeBoxOdd"/><text style="dominant-baseline: middle; font-size: 10.2px;" transform="translate(5,35)" y="0" x="0" id="text-entity-ConstantTypes-369df7e2-30fe-550e-8187-7dac32f8692a-attr-1-type" class="er entityLabel">HARVEST_INDEX</text><rect height="22" width="157.92221069335938" y="24" x="157.92221069335938" class="er attributeBoxOdd"/><text style="dominant-baseline: middle; font-size: 10.2px;" transform="translate(162.92221069335938,35)" y="0" x="0" id="text-entity-ConstantTypes-369df7e2-30fe-550e-8187-7dac32f8692a-attr-1-name" class="er entityLabel">HARVEST_INDEX</text><rect height="22" width="157.92221069335938" y="46" x="0" class="er attributeBoxEven"/><text style="dominant-baseline: middle; font-size: 10.2px;" transform="translate(5,57)" y="0" x="0" id="text-entity-ConstantTypes-369df7e2-30fe-550e-8187-7dac32f8692a-attr-2-type" class="er entityLabel">AERIAL_RESIDUE_INDEX</text><rect height="22" width="157.92221069335938" y="46" x="157.92221069335938" class="er attributeBoxEven"/><text style="dominant-baseline: middle; font-size: 10.2px;" transform="translate(162.92221069335938,57)" y="0" x="0" id="text-entity-ConstantTypes-369df7e2-30fe-550e-8187-7dac32f8692a-attr-2-name" class="er entityLabel">AERIAL_RESIDUE_INDEX</text><rect height="22" width="157.92221069335938" y="68" x="0" class="er attributeBoxOdd"/><text style="dominant-baseline: middle; font-size: 10.2px;" transform="translate(5,79)" y="0" x="0" id="text-entity-ConstantTypes-369df7e2-30fe-550e-8187-7dac32f8692a-attr-3-type" class="er entityLabel">PRODUCT_RESIDUE_INDEX</text><rect height="22" width="157.92221069335938" y="68" x="157.92221069335938" class="er attributeBoxOdd"/><text style="dominant-baseline: middle; font-size: 10.2px;" transform="translate(162.92221069335938,79)" y="0" x="0" id="text-entity-ConstantTypes-369df7e2-30fe-550e-8187-7dac32f8692a-attr-3-name" class="er entityLabel">PRODUCT_RESIDUE_INDEX</text><rect height="22" width="157.92221069335938" y="90" x="0" class="er attributeBoxEven"/><text style="dominant-baseline: middle; font-size: 10.2px;" transform="translate(5,101)" y="0" x="0" id="text-entity-ConstantTypes-369df7e2-30fe-550e-8187-7dac32f8692a-attr-4-type" class="er entityLabel">PRODUCT_DRY_MATTER_FACTOR</text><rect height="22" width="157.92221069335938" y="90" x="157.92221069335938" class="er attributeBoxEven"/><text style="dominant-baseline: middle; font-size: 10.2px;" transform="translate(162.92221069335938,101)" y="0" x="0" id="text-entity-ConstantTypes-369df7e2-30fe-550e-8187-7dac32f8692a-attr-4-name" class="er entityLabel">PRODUCT_DRY_MATTER_FACTOR</text><rect height="22" width="157.92221069335938" y="112" x="0" class="er attributeBoxOdd"/><text style="dominant-baseline: middle; font-size: 10.2px;" transform="translate(5,123)" y="0" x="0" id="text-entity-ConstantTypes-369df7e2-30fe-550e-8187-7dac32f8692a-attr-5-type" class="er entityLabel">RESIDUE_DRY_MATTER_FACTOR</text><rect height="22" width="157.92221069335938" y="112" x="157.92221069335938" class="er attributeBoxOdd"/><text style="dominant-baseline: middle; font-size: 10.2px;" transform="translate(162.92221069335938,123)" y="0" x="0" id="text-entity-ConstantTypes-369df7e2-30fe-550e-8187-7dac32f8692a-attr-5-name" class="er entityLabel">RESIDUE_DRY_MATTER_FACTOR</text><rect height="22" width="157.92221069335938" y="134" x="0" class="er attributeBoxEven"/><text style="dominant-baseline: middle; font-size: 10.2px;" transform="translate(5,145)" y="0" x="0" id="text-entity-ConstantTypes-369df7e2-30fe-550e-8187-7dac32f8692a-attr-6-type" class="er entityLabel">BELOWGROUND_INDEX</text><rect height="22" width="157.92221069335938" y="134" x="157.92221069335938" class="er attributeBoxEven"/><text style="dominant-baseline: middle; font-size: 10.2px;" transform="translate(162.92221069335938,145)" y="0" x="0" id="text-entity-ConstantTypes-369df7e2-30fe-550e-8187-7dac32f8692a-attr-6-name" class="er entityLabel">BELOWGROUND_INDEX</text><rect height="22" width="157.92221069335938" y="156" x="0" class="er attributeBoxOdd"/><text style="dominant-baseline: middle; font-size: 10.2px;" transform="translate(5,167)" y="0" x="0" id="text-entity-ConstantTypes-369df7e2-30fe-550e-8187-7dac32f8692a-attr-7-type" class="er entityLabel">WEED_AERIAL_FACTOR</text><rect height="22" width="157.92221069335938" y="156" x="157.92221069335938" class="er attributeBoxOdd"/><text style="dominant-baseline: middle; font-size: 10.2px;" transform="translate(162.92221069335938,167)" y="0" x="0" id="text-entity-ConstantTypes-369df7e2-30fe-550e-8187-7dac32f8692a-attr-7-name" class="er entityLabel">WEED_AERIAL_FACTOR</text><rect height="22" width="157.92221069335938" y="178" x="0" class="er attributeBoxEven"/><text style="dominant-baseline: middle; font-size: 10.2px;" transform="translate(5,189)" y="0" x="0" id="text-entity-ConstantTypes-369df7e2-30fe-550e-8187-7dac32f8692a-attr-8-type" class="er entityLabel">WEED_BELOWGROUND_INDEX</text><rect height="22" width="157.92221069335938" y="178" x="157.92221069335938" class="er attributeBoxEven"/><text style="dominant-baseline: middle; font-size: 10.2px;" transform="translate(162.92221069335938,189)" y="0" x="0" id="text-entity-ConstantTypes-369df7e2-30fe-550e-8187-7dac32f8692a-attr-8-name" class="er entityLabel">WEED_BELOWGROUND_INDEX</text></g><g transform="translate(64.95552444458008,31 )" id="entity-User-818c511a-4a32-5484-ba70-875d765a9175"><rect height="134" width="130.77232360839844" y="0" x="0" class="er entityBox"/><text style="dominant-baseline: middle; text-anchor: middle; font-size: 12px;" transform="translate(65.38616180419922,12)" y="0" x="0" id="text-entity-User-818c511a-4a32-5484-ba70-875d765a9175" class="er entityLabel">User</text><rect height="22" width="37.39605712890625" y="24" x="0" class="er attributeBoxOdd"/><text style="dominant-baseline: middle; font-size: 10.2px;" transform="translate(5,35)" y="0" x="0" id="text-entity-User-818c511a-4a32-5484-ba70-875d765a9175-attr-1-type" class="er entityLabel">String</text><rect height="22" width="69.36064147949219" y="24" x="37.39605712890625" class="er attributeBoxOdd"/><text style="dominant-baseline: middle; font-size: 10.2px;" transform="translate(42.39605712890625,35)" y="0" x="0" id="text-entity-User-818c511a-4a32-5484-ba70-875d765a9175-attr-1-name" class="er entityLabel">id</text><rect height="22" width="24.015625" y="24" x="106.75669860839844" class="er attributeBoxOdd"/><text style="dominant-baseline: middle; font-size: 10.2px;" transform="translate(111.75669860839844,35)" y="0" x="0" id="text-entity-User-818c511a-4a32-5484-ba70-875d765a9175-attr-1-comment" class="er entityLabel">🗝️</text><rect height="22" width="37.39605712890625" y="46" x="0" class="er attributeBoxEven"/><text style="dominant-baseline: middle; font-size: 10.2px;" transform="translate(5,57)" y="0" x="0" id="text-entity-User-818c511a-4a32-5484-ba70-875d765a9175-attr-2-type" class="er entityLabel">String</text><rect height="22" width="69.36064147949219" y="46" x="37.39605712890625" class="er attributeBoxEven"/><text style="dominant-baseline: middle; font-size: 10.2px;" transform="translate(42.39605712890625,57)" y="0" x="0" id="text-entity-User-818c511a-4a32-5484-ba70-875d765a9175-attr-2-name" class="er entityLabel">name</text><rect height="22" width="24.015625" y="46" x="106.75669860839844" class="er attributeBoxEven"/><text style="dominant-baseline: middle; font-size: 10.2px;" transform="translate(111.75669860839844,57)" y="0" x="0" id="text-entity-User-818c511a-4a32-5484-ba70-875d765a9175-attr-2-comment" class="er entityLabel"/><rect height="22" width="37.39605712890625" y="68" x="0" class="er attributeBoxOdd"/><text style="dominant-baseline: middle; font-size: 10.2px;" transform="translate(5,79)" y="0" x="0" id="text-entity-User-818c511a-4a32-5484-ba70-875d765a9175-attr-3-type" class="er entityLabel">String</text><rect height="22" width="69.36064147949219" y="68" x="37.39605712890625" class="er attributeBoxOdd"/><text style="dominant-baseline: middle; font-size: 10.2px;" transform="translate(42.39605712890625,79)" y="0" x="0" id="text-entity-User-818c511a-4a32-5484-ba70-875d765a9175-attr-3-name" class="er entityLabel">email</text><rect height="22" width="24.015625" y="68" x="106.75669860839844" class="er attributeBoxOdd"/><text style="dominant-baseline: middle; font-size: 10.2px;" transform="translate(111.75669860839844,79)" y="0" x="0" id="text-entity-User-818c511a-4a32-5484-ba70-875d765a9175-attr-3-comment" class="er entityLabel"/><rect height="22" width="37.39605712890625" y="90" x="0" class="er attributeBoxEven"/><text style="dominant-baseline: middle; font-size: 10.2px;" transform="translate(5,101)" y="0" x="0" id="text-entity-User-818c511a-4a32-5484-ba70-875d765a9175-attr-4-type" class="er entityLabel">String</text><rect height="22" width="69.36064147949219" y="90" x="37.39605712890625" class="er attributeBoxEven"/><text style="dominant-baseline: middle; font-size: 10.2px;" transform="translate(42.39605712890625,101)" y="0" x="0" id="text-entity-User-818c511a-4a32-5484-ba70-875d765a9175-attr-4-name" class="er entityLabel">password</text><rect height="22" width="24.015625" y="90" x="106.75669860839844" class="er attributeBoxEven"/><text style="dominant-baseline: middle; font-size: 10.2px;" transform="translate(111.75669860839844,101)" y="0" x="0" id="text-entity-User-818c511a-4a32-5484-ba70-875d765a9175-attr-4-comment" class="er entityLabel"/><rect height="22" width="37.39605712890625" y="112" x="0" class="er attributeBoxOdd"/><text style="dominant-baseline: middle; font-size: 10.2px;" transform="translate(5,123)" y="0" x="0" id="text-entity-User-818c511a-4a32-5484-ba70-875d765a9175-attr-5-type" class="er entityLabel">String</text><rect height="22" width="69.36064147949219" y="112" x="37.39605712890625" class="er attributeBoxOdd"/><text style="dominant-baseline: middle; font-size: 10.2px;" transform="translate(42.39605712890625,123)" y="0" x="0" id="text-entity-User-818c511a-4a32-5484-ba70-875d765a9175-attr-5-name" class="er entityLabel">refreshToken</text><rect height="22" width="24.015625" y="112" x="106.75669860839844" class="er attributeBoxOdd"/><text style="dominant-baseline: middle; font-size: 10.2px;" transform="translate(111.75669860839844,123)" y="0" x="0" id="text-entity-User-818c511a-4a32-5484-ba70-875d765a9175-attr-5-comment" class="er entityLabel">❓</text></g><g transform="translate(295.7278480529785,20 )" id="entity-Crop-c4630aa1-a4af-5428-a0ab-b9b15093bb9f"><rect height="156" width="156.3519744873047" y="0" x="0" class="er entityBox"/><text style="dominant-baseline: middle; text-anchor: middle; font-size: 12px;" transform="translate(78.17598724365234,12)" y="0" x="0" id="text-entity-Crop-c4630aa1-a4af-5428-a0ab-b9b15093bb9f" class="er entityLabel">Crop</text><rect height="22" width="54.095550537109375" y="24" x="0" class="er attributeBoxOdd"/><text style="dominant-baseline: middle; font-size: 10.2px;" transform="translate(5,35)" y="0" x="0" id="text-entity-Crop-c4630aa1-a4af-5428-a0ab-b9b15093bb9f-attr-1-type" class="er entityLabel">String</text><rect height="22" width="78.24079895019531" y="24" x="54.095550537109375" class="er attributeBoxOdd"/><text style="dominant-baseline: middle; font-size: 10.2px;" transform="translate(59.095550537109375,35)" y="0" x="0" id="text-entity-Crop-c4630aa1-a4af-5428-a0ab-b9b15093bb9f-attr-1-name" class="er entityLabel">id</text><rect height="22" width="24.015625" y="24" x="132.3363494873047" class="er attributeBoxOdd"/><text style="dominant-baseline: middle; font-size: 10.2px;" transform="translate(137.3363494873047,35)" y="0" x="0" id="text-entity-Crop-c4630aa1-a4af-5428-a0ab-b9b15093bb9f-attr-1-comment" class="er entityLabel">🗝️</text><rect height="22" width="54.095550537109375" y="46" x="0" class="er attributeBoxEven"/><text style="dominant-baseline: middle; font-size: 10.2px;" transform="translate(5,57)" y="0" x="0" id="text-entity-Crop-c4630aa1-a4af-5428-a0ab-b9b15093bb9f-attr-2-type" class="er entityLabel">String</text><rect height="22" width="78.24079895019531" y="46" x="54.095550537109375" class="er attributeBoxEven"/><text style="dominant-baseline: middle; font-size: 10.2px;" transform="translate(59.095550537109375,57)" y="0" x="0" id="text-entity-Crop-c4630aa1-a4af-5428-a0ab-b9b15093bb9f-attr-2-name" class="er entityLabel">name</text><rect height="22" width="24.015625" y="46" x="132.3363494873047" class="er attributeBoxEven"/><text style="dominant-baseline: middle; font-size: 10.2px;" transform="translate(137.3363494873047,57)" y="0" x="0" id="text-entity-Crop-c4630aa1-a4af-5428-a0ab-b9b15093bb9f-attr-2-comment" class="er entityLabel"/><rect height="22" width="54.095550537109375" y="68" x="0" class="er attributeBoxOdd"/><text style="dominant-baseline: middle; font-size: 10.2px;" transform="translate(5,79)" y="0" x="0" id="text-entity-Crop-c4630aa1-a4af-5428-a0ab-b9b15093bb9f-attr-3-type" class="er entityLabel">String</text><rect height="22" width="78.24079895019531" y="68" x="54.095550537109375" class="er attributeBoxOdd"/><text style="dominant-baseline: middle; font-size: 10.2px;" transform="translate(59.095550537109375,79)" y="0" x="0" id="text-entity-Crop-c4630aa1-a4af-5428-a0ab-b9b15093bb9f-attr-3-name" class="er entityLabel">scientificName</text><rect height="22" width="24.015625" y="68" x="132.3363494873047" class="er attributeBoxOdd"/><text style="dominant-baseline: middle; font-size: 10.2px;" transform="translate(137.3363494873047,79)" y="0" x="0" id="text-entity-Crop-c4630aa1-a4af-5428-a0ab-b9b15093bb9f-attr-3-comment" class="er entityLabel"/><rect height="22" width="54.095550537109375" y="90" x="0" class="er attributeBoxEven"/><text style="dominant-baseline: middle; font-size: 10.2px;" transform="translate(5,101)" y="0" x="0" id="text-entity-Crop-c4630aa1-a4af-5428-a0ab-b9b15093bb9f-attr-4-type" class="er entityLabel">Climates</text><rect height="22" width="78.24079895019531" y="90" x="54.095550537109375" class="er attributeBoxEven"/><text style="dominant-baseline: middle; font-size: 10.2px;" transform="translate(59.095550537109375,101)" y="0" x="0" id="text-entity-Crop-c4630aa1-a4af-5428-a0ab-b9b15093bb9f-attr-4-name" class="er entityLabel">climate</text><rect height="22" width="24.015625" y="90" x="132.3363494873047" class="er attributeBoxEven"/><text style="dominant-baseline: middle; font-size: 10.2px;" transform="translate(137.3363494873047,101)" y="0" x="0" id="text-entity-Crop-c4630aa1-a4af-5428-a0ab-b9b15093bb9f-attr-4-comment" class="er entityLabel"/><rect height="22" width="54.095550537109375" y="112" x="0" class="er attributeBoxOdd"/><text style="dominant-baseline: middle; font-size: 10.2px;" transform="translate(5,123)" y="0" x="0" id="text-entity-Crop-c4630aa1-a4af-5428-a0ab-b9b15093bb9f-attr-5-type" class="er entityLabel">DateTime</text><rect height="22" width="78.24079895019531" y="112" x="54.095550537109375" class="er attributeBoxOdd"/><text style="dominant-baseline: middle; font-size: 10.2px;" transform="translate(59.095550537109375,123)" y="0" x="0" id="text-entity-Crop-c4630aa1-a4af-5428-a0ab-b9b15093bb9f-attr-5-name" class="er entityLabel">createdAt</text><rect height="22" width="24.015625" y="112" x="132.3363494873047" class="er attributeBoxOdd"/><text style="dominant-baseline: middle; font-size: 10.2px;" transform="translate(137.3363494873047,123)" y="0" x="0" id="text-entity-Crop-c4630aa1-a4af-5428-a0ab-b9b15093bb9f-attr-5-comment" class="er entityLabel"/><rect height="22" width="54.095550537109375" y="134" x="0" class="er attributeBoxEven"/><text style="dominant-baseline: middle; font-size: 10.2px;" transform="translate(5,145)" y="0" x="0" id="text-entity-Crop-c4630aa1-a4af-5428-a0ab-b9b15093bb9f-attr-6-type" class="er entityLabel">DateTime</text><rect height="22" width="78.24079895019531" y="134" x="54.095550537109375" class="er attributeBoxEven"/><text style="dominant-baseline: middle; font-size: 10.2px;" transform="translate(59.095550537109375,145)" y="0" x="0" id="text-entity-Crop-c4630aa1-a4af-5428-a0ab-b9b15093bb9f-attr-6-name" class="er entityLabel">updatedAt</text><rect height="22" width="24.015625" y="134" x="132.3363494873047" class="er attributeBoxEven"/><text style="dominant-baseline: middle; font-size: 10.2px;" transform="translate(137.3363494873047,145)" y="0" x="0" id="text-entity-Crop-c4630aa1-a4af-5428-a0ab-b9b15093bb9f-attr-6-comment" class="er entityLabel"/></g><g transform="translate(309.8506774902344,309 )" id="entity-Constant-7fcc493b-c863-573b-9397-710734e84981"><rect height="178" width="158.9390106201172" y="0" x="0" class="er entityBox"/><text style="dominant-baseline: middle; text-anchor: middle; font-size: 12px;" transform="translate(79.4695053100586,12)" y="0" x="0" id="text-entity-Constant-7fcc493b-c863-573b-9397-710734e84981" class="er entityLabel">Constant</text><rect height="22" width="76.31944274902344" y="24" x="0" class="er attributeBoxOdd"/><text style="dominant-baseline: middle; font-size: 10.2px;" transform="translate(5,35)" y="0" x="0" id="text-entity-Constant-7fcc493b-c863-573b-9397-710734e84981-attr-1-type" class="er entityLabel">String</text><rect height="22" width="58.60394287109375" y="24" x="76.31944274902344" class="er attributeBoxOdd"/><text style="dominant-baseline: middle; font-size: 10.2px;" transform="translate(81.31944274902344,35)" y="0" x="0" id="text-entity-Constant-7fcc493b-c863-573b-9397-710734e84981-attr-1-name" class="er entityLabel">id</text><rect height="22" width="24.015625" y="24" x="134.9233856201172" class="er attributeBoxOdd"/><text style="dominant-baseline: middle; font-size: 10.2px;" transform="translate(139.9233856201172,35)" y="0" x="0" id="text-entity-Constant-7fcc493b-c863-573b-9397-710734e84981-attr-1-comment" class="er entityLabel">🗝️</text><rect height="22" width="76.31944274902344" y="46" x="0" class="er attributeBoxEven"/><text style="dominant-baseline: middle; font-size: 10.2px;" transform="translate(5,57)" y="0" x="0" id="text-entity-Constant-7fcc493b-c863-573b-9397-710734e84981-attr-2-type" class="er entityLabel">Float</text><rect height="22" width="58.60394287109375" y="46" x="76.31944274902344" class="er attributeBoxEven"/><text style="dominant-baseline: middle; font-size: 10.2px;" transform="translate(81.31944274902344,57)" y="0" x="0" id="text-entity-Constant-7fcc493b-c863-573b-9397-710734e84981-attr-2-name" class="er entityLabel">value</text><rect height="22" width="24.015625" y="46" x="134.9233856201172" class="er attributeBoxEven"/><text style="dominant-baseline: middle; font-size: 10.2px;" transform="translate(139.9233856201172,57)" y="0" x="0" id="text-entity-Constant-7fcc493b-c863-573b-9397-710734e84981-attr-2-comment" class="er entityLabel"/><rect height="22" width="76.31944274902344" y="68" x="0" class="er attributeBoxOdd"/><text style="dominant-baseline: middle; font-size: 10.2px;" transform="translate(5,79)" y="0" x="0" id="text-entity-Constant-7fcc493b-c863-573b-9397-710734e84981-attr-3-type" class="er entityLabel">String</text><rect height="22" width="58.60394287109375" y="68" x="76.31944274902344" class="er attributeBoxOdd"/><text style="dominant-baseline: middle; font-size: 10.2px;" transform="translate(81.31944274902344,79)" y="0" x="0" id="text-entity-Constant-7fcc493b-c863-573b-9397-710734e84981-attr-3-name" class="er entityLabel">reference</text><rect height="22" width="24.015625" y="68" x="134.9233856201172" class="er attributeBoxOdd"/><text style="dominant-baseline: middle; font-size: 10.2px;" transform="translate(139.9233856201172,79)" y="0" x="0" id="text-entity-Constant-7fcc493b-c863-573b-9397-710734e84981-attr-3-comment" class="er entityLabel"/><rect height="22" width="76.31944274902344" y="90" x="0" class="er attributeBoxEven"/><text style="dominant-baseline: middle; font-size: 10.2px;" transform="translate(5,101)" y="0" x="0" id="text-entity-Constant-7fcc493b-c863-573b-9397-710734e84981-attr-4-type" class="er entityLabel">String</text><rect height="22" width="58.60394287109375" y="90" x="76.31944274902344" class="er attributeBoxEven"/><text style="dominant-baseline: middle; font-size: 10.2px;" transform="translate(81.31944274902344,101)" y="0" x="0" id="text-entity-Constant-7fcc493b-c863-573b-9397-710734e84981-attr-4-name" class="er entityLabel">comment</text><rect height="22" width="24.015625" y="90" x="134.9233856201172" class="er attributeBoxEven"/><text style="dominant-baseline: middle; font-size: 10.2px;" transform="translate(139.9233856201172,101)" y="0" x="0" id="text-entity-Constant-7fcc493b-c863-573b-9397-710734e84981-attr-4-comment" class="er entityLabel"/><rect height="22" width="76.31944274902344" y="112" x="0" class="er attributeBoxOdd"/><text style="dominant-baseline: middle; font-size: 10.2px;" transform="translate(5,123)" y="0" x="0" id="text-entity-Constant-7fcc493b-c863-573b-9397-710734e84981-attr-5-type" class="er entityLabel">ConstantTypes</text><rect height="22" width="58.60394287109375" y="112" x="76.31944274902344" class="er attributeBoxOdd"/><text style="dominant-baseline: middle; font-size: 10.2px;" transform="translate(81.31944274902344,123)" y="0" x="0" id="text-entity-Constant-7fcc493b-c863-573b-9397-710734e84981-attr-5-name" class="er entityLabel">type</text><rect height="22" width="24.015625" y="112" x="134.9233856201172" class="er attributeBoxOdd"/><text style="dominant-baseline: middle; font-size: 10.2px;" transform="translate(139.9233856201172,123)" y="0" x="0" id="text-entity-Constant-7fcc493b-c863-573b-9397-710734e84981-attr-5-comment" class="er entityLabel"/><rect height="22" width="76.31944274902344" y="134" x="0" class="er attributeBoxEven"/><text style="dominant-baseline: middle; font-size: 10.2px;" transform="translate(5,145)" y="0" x="0" id="text-entity-Constant-7fcc493b-c863-573b-9397-710734e84981-attr-6-type" class="er entityLabel">DateTime</text><rect height="22" width="58.60394287109375" y="134" x="76.31944274902344" class="er attributeBoxEven"/><text style="dominant-baseline: middle; font-size: 10.2px;" transform="translate(81.31944274902344,145)" y="0" x="0" id="text-entity-Constant-7fcc493b-c863-573b-9397-710734e84981-attr-6-name" class="er entityLabel">createdAt</text><rect height="22" width="24.015625" y="134" x="134.9233856201172" class="er attributeBoxEven"/><text style="dominant-baseline: middle; font-size: 10.2px;" transform="translate(139.9233856201172,145)" y="0" x="0" id="text-entity-Constant-7fcc493b-c863-573b-9397-710734e84981-attr-6-comment" class="er entityLabel"/><rect height="22" width="76.31944274902344" y="156" x="0" class="er attributeBoxOdd"/><text style="dominant-baseline: middle; font-size: 10.2px;" transform="translate(5,167)" y="0" x="0" id="text-entity-Constant-7fcc493b-c863-573b-9397-710734e84981-attr-7-type" class="er entityLabel">DateTime</text><rect height="22" width="58.60394287109375" y="156" x="76.31944274902344" class="er attributeBoxOdd"/><text style="dominant-baseline: middle; font-size: 10.2px;" transform="translate(81.31944274902344,167)" y="0" x="0" id="text-entity-Constant-7fcc493b-c863-573b-9397-710734e84981-attr-7-name" class="er entityLabel">updatedAt</text><rect height="22" width="24.015625" y="156" x="134.9233856201172" class="er attributeBoxOdd"/><text style="dominant-baseline: middle; font-size: 10.2px;" transform="translate(139.9233856201172,167)" y="0" x="0" id="text-entity-Constant-7fcc493b-c863-573b-9397-710734e84981-attr-7-comment" class="er entityLabel"/></g><rect height="14" width="74.951171875" y="184.3129425048828" x="151.65408325195312" class="er relationshipLabelBox"/><text style="text-anchor: middle; dominant-baseline: middle; font-size: 12px;" y="191.3129425048828" x="189.12966918945312" id="rel1" class="er relationshipLabel">enum:climate</text><rect height="14" width="51.171875" y="236.0874786376953" x="321.3879089355469" class="er relationshipLabelBox"/><text style="text-anchor: middle; dominant-baseline: middle; font-size: 12px;" y="243.0874786376953" x="346.9738464355469" id="rel2" class="er relationshipLabel">constants</text><rect height="14" width="58.38671875" y="546.5" x="360.1268310546875" class="er relationshipLabelBox"/><text style="text-anchor: middle; dominant-baseline: middle; font-size: 12px;" y="553.5" x="389.3201904296875" id="rel3" class="er relationshipLabel">enum:type</text><rect height="14" width="24.044921875" y="234.7943572998047" x="418.6056823730469" class="er relationshipLabelBox"/><text style="text-anchor: middle; dominant-baseline: middle; font-size: 12px;" y="241.7943572998047" x="430.6281433105469" id="rel4" class="er relationshipLabel">crop</text></svg>