<svg aria-roledescription="er" role="graphics-document document" viewBox="0 0 504.71429443359375 755" style="max-width: 504.714px; background-color: white;" xmlns:xlink="http://www.w3.org/1999/xlink" xmlns="http://www.w3.org/2000/svg" width="100%" id="my-svg"><style>#my-svg{font-family:"trebuchet ms",verdana,arial,sans-serif;font-size:16px;fill:#000000;}#my-svg .error-icon{fill:#552222;}#my-svg .error-text{fill:#552222;stroke:#552222;}#my-svg .edge-thickness-normal{stroke-width:2px;}#my-svg .edge-thickness-thick{stroke-width:3.5px;}#my-svg .edge-pattern-solid{stroke-dasharray:0;}#my-svg .edge-pattern-dashed{stroke-dasharray:3;}#my-svg .edge-pattern-dotted{stroke-dasharray:2;}#my-svg .marker{fill:#000000;stroke:#000000;}#my-svg .marker.cross{stroke:#000000;}#my-svg svg{font-family:"trebuchet ms",verdana,arial,sans-serif;font-size:16px;}#my-svg .entityBox{fill:#cde498;stroke:#13540c;}#my-svg .attributeBoxOdd{fill:#ffffff;stroke:#13540c;}#my-svg .attributeBoxEven{fill:#f2f2f2;stroke:#13540c;}#my-svg .relationshipLabelBox{fill:hsl(78.1578947368, 58.4615384615%, 84.5098039216%);opacity:0.7;background-color:hsl(78.1578947368, 58.4615384615%, 84.5098039216%);}#my-svg .relationshipLabelBox rect{opacity:0.5;}#my-svg .relationshipLine{stroke:#000000;}#my-svg .entityTitleText{text-anchor:middle;font-size:18px;fill:#000000;}#my-svg #MD_PARENT_START{fill:#f5f5f5!important;stroke:#000000!important;stroke-width:1;}#my-svg #MD_PARENT_END{fill:#f5f5f5!important;stroke:#000000!important;stroke-width:1;}#my-svg :root{--mermaid-font-family:"trebuchet ms",verdana,arial,sans-serif;}</style><g/><defs><marker orient="auto" markerHeight="240" markerWidth="190" refY="7" refX="0" id="MD_PARENT_START"><path d="M 18,7 L9,13 L1,7 L9,1 Z"/></marker></defs><defs><marker orient="auto" markerHeight="28" markerWidth="20" refY="7" refX="19" id="MD_PARENT_END"><path d="M 18,7 L9,13 L1,7 L9,1 Z"/></marker></defs><defs><marker orient="auto" markerHeight="18" markerWidth="18" refY="9" refX="0" id="ONLY_ONE_START"><path d="M9,0 L9,18 M15,0 L15,18" fill="none" stroke="gray"/></marker></defs><defs><marker orient="auto" markerHeight="18" markerWidth="18" refY="9" refX="18" id="ONLY_ONE_END"><path d="M3,0 L3,18 M9,0 L9,18" fill="none" stroke="gray"/></marker></defs><defs><marker orient="auto" markerHeight="18" markerWidth="30" refY="9" refX="0" id="ZERO_OR_ONE_START"><circle r="6" cy="9" cx="21" fill="white" stroke="gray"/><path d="M9,0 L9,18" fill="none" stroke="gray"/></marker></defs><defs><marker orient="auto" markerHeight="18" markerWidth="30" refY="9" refX="30" id="ZERO_OR_ONE_END"><circle r="6" cy="9" cx="9" fill="white" stroke="gray"/><path d="M21,0 L21,18" fill="none" stroke="gray"/></marker></defs><defs><marker orient="auto" markerHeight="36" markerWidth="45" refY="18" refX="18" id="ONE_OR_MORE_START"><path d="M0,18 Q 18,0 36,18 Q 18,36 0,18 M42,9 L42,27" fill="none" stroke="gray"/></marker></defs><defs><marker orient="auto" markerHeight="36" markerWidth="45" refY="18" refX="27" id="ONE_OR_MORE_END"><path d="M3,9 L3,27 M9,18 Q27,0 45,18 Q27,36 9,18" fill="none" stroke="gray"/></marker></defs><defs><marker orient="auto" markerHeight="36" markerWidth="57" refY="18" refX="18" id="ZERO_OR_MORE_START"><circle r="6" cy="18" cx="48" fill="white" stroke="gray"/><path d="M0,18 Q18,0 36,18 Q18,36 0,18" fill="none" stroke="gray"/></marker></defs><defs><marker orient="auto" markerHeight="36" markerWidth="57" refY="18" refX="39" id="ZERO_OR_MORE_END"><circle r="6" cy="18" cx="9" fill="white" stroke="gray"/><path d="M21,18 Q39,0 57,18 Q39,36 21,18" fill="none" stroke="gray"/></marker></defs><path style="stroke: gray; fill: none;" marker-start="url(#ZERO_OR_MORE_START)" marker-end="url(#ZERO_OR_MORE_END)" d="M298.1903659367965,155.5L294.62398175600555,163.91666666666666C291.05759757521463,172.33333333333334,283.9248292136327,189.16666666666666,283.34530285840924,205.91666666666666C282.7657765031858,222.66666666666666,288.73949215432077,239.33333333333334,291.7263499798883,247.66666666666666L294.7132078054558,256" class="er relationshipLine"/><path style="stroke: gray; fill: none;" marker-start="url(#ZERO_OR_ONE_START)" marker-end="url(#ONLY_ONE_END)" d="M326.7920608520508,435L326.7920608520508,443.3333333333333C326.7920608520508,451.6666666666667,326.7920608520508,468.3333333333333,326.7920608520508,485C326.7920608520508,501.6666666666667,326.7920608520508,518.3333333333334,326.7920608520508,526.6666666666666L326.7920608520508,535" class="er relationshipLine"/><path style="stroke: gray; fill: none;" marker-start="url(#ZERO_OR_ONE_START)" marker-end="url(#ZERO_OR_ONE_END)" d="M358.87091389864577,256L361.8577717242133,247.66666666666666C364.8446295497808,239.33333333333334,370.81834520091576,222.66666666666666,370.2388188456923,205.91666666666666C369.6592924904689,189.16666666666666,362.52652412888693,172.33333333333334,358.960139948096,163.91666666666666L355.39375576730504,155.5" class="er relationshipLine"/><g transform="translate(168.8698501586914,535 )" id="entity-ConstantTypes-369df7e2-30fe-550e-8187-7dac32f8692a"><rect height="200" width="315.84442138671875" y="0" x="0" class="er entityBox"/><text style="dominant-baseline: middle; text-anchor: middle; font-size: 12px;" transform="translate(157.92221069335938,12)" y="0" x="0" id="text-entity-ConstantTypes-369df7e2-30fe-550e-8187-7dac32f8692a" class="er entityLabel">ConstantTypes</text><rect height="22" width="157.92221069335938" y="24" x="0" class="er attributeBoxOdd"/><text style="dominant-baseline: middle; font-size: 10.2px;" transform="translate(5,35)" y="0" x="0" id="text-entity-ConstantTypes-369df7e2-30fe-550e-8187-7dac32f8692a-attr-1-type" class="er entityLabel">HARVEST_INDEX</text><rect height="22" width="157.92221069335938" y="24" x="157.92221069335938" class="er attributeBoxOdd"/><text style="dominant-baseline: middle; font-size: 10.2px;" transform="translate(162.92221069335938,35)" y="0" x="0" id="text-entity-ConstantTypes-369df7e2-30fe-550e-8187-7dac32f8692a-attr-1-name" class="er entityLabel">HARVEST_INDEX</text><rect height="22" width="157.92221069335938" y="46" x="0" class="er attributeBoxEven"/><text style="dominant-baseline: middle; font-size: 10.2px;" transform="translate(5,57)" y="0" x="0" id="text-entity-ConstantTypes-369df7e2-30fe-550e-8187-7dac32f8692a-attr-2-type" class="er entityLabel">AERIAL_RESIDUE_INDEX</text><rect height="22" width="157.92221069335938" y="46" x="157.92221069335938" class="er attributeBoxEven"/><text style="dominant-baseline: middle; font-size: 10.2px;" transform="translate(162.92221069335938,57)" y="0" x="0" id="text-entity-ConstantTypes-369df7e2-30fe-550e-8187-7dac32f8692a-attr-2-name" class="er entityLabel">AERIAL_RESIDUE_INDEX</text><rect height="22" width="157.92221069335938" y="68" x="0" class="er attributeBoxOdd"/><text style="dominant-baseline: middle; font-size: 10.2px;" transform="translate(5,79)" y="0" x="0" id="text-entity-ConstantTypes-369df7e2-30fe-550e-8187-7dac32f8692a-attr-3-type" class="er entityLabel">PRODUCT_RESIDUE_INDEX</text><rect height="22" width="157.92221069335938" y="68" x="157.92221069335938" class="er attributeBoxOdd"/><text style="dominant-baseline: middle; font-size: 10.2px;" transform="translate(162.92221069335938,79)" y="0" x="0" id="text-entity-ConstantTypes-369df7e2-30fe-550e-8187-7dac32f8692a-attr-3-name" class="er entityLabel">PRODUCT_RESIDUE_INDEX</text><rect height="22" width="157.92221069335938" y="90" x="0" class="er attributeBoxEven"/><text style="dominant-baseline: middle; font-size: 10.2px;" transform="translate(5,101)" y="0" x="0" id="text-entity-ConstantTypes-369df7e2-30fe-550e-8187-7dac32f8692a-attr-4-type" class="er entityLabel">PRODUCT_DRY_MATTER_FACTOR</text><rect height="22" width="157.92221069335938" y="90" x="157.92221069335938" class="er attributeBoxEven"/><text style="dominant-baseline: middle; font-size: 10.2px;" transform="translate(162.92221069335938,101)" y="0" x="0" id="text-entity-ConstantTypes-369df7e2-30fe-550e-8187-7dac32f8692a-attr-4-name" class="er entityLabel">PRODUCT_DRY_MATTER_FACTOR</text><rect height="22" width="157.92221069335938" y="112" x="0" class="er attributeBoxOdd"/><text style="dominant-baseline: middle; font-size: 10.2px;" transform="translate(5,123)" y="0" x="0" id="text-entity-ConstantTypes-369df7e2-30fe-550e-8187-7dac32f8692a-attr-5-type" class="er entityLabel">RESIDUE_DRY_MATTER_FACTOR</text><rect height="22" width="157.92221069335938" y="112" x="157.92221069335938" class="er attributeBoxOdd"/><text style="dominant-baseline: middle; font-size: 10.2px;" transform="translate(162.92221069335938,123)" y="0" x="0" id="text-entity-ConstantTypes-369df7e2-30fe-550e-8187-7dac32f8692a-attr-5-name" class="er entityLabel">RESIDUE_DRY_MATTER_FACTOR</text><rect height="22" width="157.92221069335938" y="134" x="0" class="er attributeBoxEven"/><text style="dominant-baseline: middle; font-size: 10.2px;" transform="translate(5,145)" y="0" x="0" id="text-entity-ConstantTypes-369df7e2-30fe-550e-8187-7dac32f8692a-attr-6-type" class="er entityLabel">BELOWGROUND_INDEX</text><rect height="22" width="157.92221069335938" y="134" x="157.92221069335938" class="er attributeBoxEven"/><text style="dominant-baseline: middle; font-size: 10.2px;" transform="translate(162.92221069335938,145)" y="0" x="0" id="text-entity-ConstantTypes-369df7e2-30fe-550e-8187-7dac32f8692a-attr-6-name" class="er entityLabel">BELOWGROUND_INDEX</text><rect height="22" width="157.92221069335938" y="156" x="0" class="er attributeBoxOdd"/><text style="dominant-baseline: middle; font-size: 10.2px;" transform="translate(5,167)" y="0" x="0" id="text-entity-ConstantTypes-369df7e2-30fe-550e-8187-7dac32f8692a-attr-7-type" class="er entityLabel">WEED_AERIAL_FACTOR</text><rect height="22" width="157.92221069335938" y="156" x="157.92221069335938" class="er attributeBoxOdd"/><text style="dominant-baseline: middle; font-size: 10.2px;" transform="translate(162.92221069335938,167)" y="0" x="0" id="text-entity-ConstantTypes-369df7e2-30fe-550e-8187-7dac32f8692a-attr-7-name" class="er entityLabel">WEED_AERIAL_FACTOR</text><rect height="22" width="157.92221069335938" y="178" x="0" class="er attributeBoxEven"/><text style="dominant-baseline: middle; font-size: 10.2px;" transform="translate(5,189)" y="0" x="0" id="text-entity-ConstantTypes-369df7e2-30fe-550e-8187-7dac32f8692a-attr-8-type" class="er entityLabel">WEED_BELOWGROUND_INDEX</text><rect height="22" width="157.92221069335938" y="178" x="157.92221069335938" class="er attributeBoxEven"/><text style="dominant-baseline: middle; font-size: 10.2px;" transform="translate(162.92221069335938,189)" y="0" x="0" id="text-entity-ConstantTypes-369df7e2-30fe-550e-8187-7dac32f8692a-attr-8-name" class="er entityLabel">WEED_BELOWGROUND_INDEX</text></g><g transform="translate(20,20 )" id="entity-User-818c511a-4a32-5484-ba70-875d765a9175"><rect height="136" width="129.33482360839844" y="0" x="0" class="er entityBox"/><text style="dominant-baseline: middle; text-anchor: middle; font-size: 12px;" transform="translate(64.66741180419922,12)" y="0" x="0" id="text-entity-User-818c511a-4a32-5484-ba70-875d765a9175" class="er entityLabel">User</text><rect height="23" width="37.39605712890625" y="24" x="0" class="er attributeBoxOdd"/><text style="dominant-baseline: middle; font-size: 10.2px;" transform="translate(5,35.5)" y="0" x="0" id="text-entity-User-818c511a-4a32-5484-ba70-875d765a9175-attr-1-type" class="er entityLabel">String</text><rect height="23" width="69.36064147949219" y="24" x="37.39605712890625" class="er attributeBoxOdd"/><text style="dominant-baseline: middle; font-size: 10.2px;" transform="translate(42.39605712890625,35.5)" y="0" x="0" id="text-entity-User-818c511a-4a32-5484-ba70-875d765a9175-attr-1-name" class="er entityLabel">id</text><rect height="23" width="22.578125" y="24" x="106.75669860839844" class="er attributeBoxOdd"/><text style="dominant-baseline: middle; font-size: 10.2px;" transform="translate(111.75669860839844,35.5)" y="0" x="0" id="text-entity-User-818c511a-4a32-5484-ba70-875d765a9175-attr-1-comment" class="er entityLabel">🗝️</text><rect height="22" width="37.39605712890625" y="47" x="0" class="er attributeBoxEven"/><text style="dominant-baseline: middle; font-size: 10.2px;" transform="translate(5,58)" y="0" x="0" id="text-entity-User-818c511a-4a32-5484-ba70-875d765a9175-attr-2-type" class="er entityLabel">String</text><rect height="22" width="69.36064147949219" y="47" x="37.39605712890625" class="er attributeBoxEven"/><text style="dominant-baseline: middle; font-size: 10.2px;" transform="translate(42.39605712890625,58)" y="0" x="0" id="text-entity-User-818c511a-4a32-5484-ba70-875d765a9175-attr-2-name" class="er entityLabel">name</text><rect height="22" width="22.578125" y="47" x="106.75669860839844" class="er attributeBoxEven"/><text style="dominant-baseline: middle; font-size: 10.2px;" transform="translate(111.75669860839844,58)" y="0" x="0" id="text-entity-User-818c511a-4a32-5484-ba70-875d765a9175-attr-2-comment" class="er entityLabel"/><rect height="22" width="37.39605712890625" y="69" x="0" class="er attributeBoxOdd"/><text style="dominant-baseline: middle; font-size: 10.2px;" transform="translate(5,80)" y="0" x="0" id="text-entity-User-818c511a-4a32-5484-ba70-875d765a9175-attr-3-type" class="er entityLabel">String</text><rect height="22" width="69.36064147949219" y="69" x="37.39605712890625" class="er attributeBoxOdd"/><text style="dominant-baseline: middle; font-size: 10.2px;" transform="translate(42.39605712890625,80)" y="0" x="0" id="text-entity-User-818c511a-4a32-5484-ba70-875d765a9175-attr-3-name" class="er entityLabel">email</text><rect height="22" width="22.578125" y="69" x="106.75669860839844" class="er attributeBoxOdd"/><text style="dominant-baseline: middle; font-size: 10.2px;" transform="translate(111.75669860839844,80)" y="0" x="0" id="text-entity-User-818c511a-4a32-5484-ba70-875d765a9175-attr-3-comment" class="er entityLabel"/><rect height="22" width="37.39605712890625" y="91" x="0" class="er attributeBoxEven"/><text style="dominant-baseline: middle; font-size: 10.2px;" transform="translate(5,102)" y="0" x="0" id="text-entity-User-818c511a-4a32-5484-ba70-875d765a9175-attr-4-type" class="er entityLabel">String</text><rect height="22" width="69.36064147949219" y="91" x="37.39605712890625" class="er attributeBoxEven"/><text style="dominant-baseline: middle; font-size: 10.2px;" transform="translate(42.39605712890625,102)" y="0" x="0" id="text-entity-User-818c511a-4a32-5484-ba70-875d765a9175-attr-4-name" class="er entityLabel">password</text><rect height="22" width="22.578125" y="91" x="106.75669860839844" class="er attributeBoxEven"/><text style="dominant-baseline: middle; font-size: 10.2px;" transform="translate(111.75669860839844,102)" y="0" x="0" id="text-entity-User-818c511a-4a32-5484-ba70-875d765a9175-attr-4-comment" class="er entityLabel"/><rect height="23" width="37.39605712890625" y="113" x="0" class="er attributeBoxOdd"/><text style="dominant-baseline: middle; font-size: 10.2px;" transform="translate(5,124.5)" y="0" x="0" id="text-entity-User-818c511a-4a32-5484-ba70-875d765a9175-attr-5-type" class="er entityLabel">String</text><rect height="23" width="69.36064147949219" y="113" x="37.39605712890625" class="er attributeBoxOdd"/><text style="dominant-baseline: middle; font-size: 10.2px;" transform="translate(42.39605712890625,124.5)" y="0" x="0" id="text-entity-User-818c511a-4a32-5484-ba70-875d765a9175-attr-5-name" class="er entityLabel">refreshToken</text><rect height="23" width="22.578125" y="113" x="106.75669860839844" class="er attributeBoxOdd"/><text style="dominant-baseline: middle; font-size: 10.2px;" transform="translate(111.75669860839844,124.5)" y="0" x="0" id="text-entity-User-818c511a-4a32-5484-ba70-875d765a9175-attr-5-comment" class="er entityLabel">❓</text></g><g transform="translate(249.33482360839844,20.5 )" id="entity-Crops-871a95e5-25de-5716-9136-59493b39599b"><rect height="135" width="154.9144744873047" y="0" x="0" class="er entityBox"/><text style="dominant-baseline: middle; text-anchor: middle; font-size: 12px;" transform="translate(77.45723724365234,12)" y="0" x="0" id="text-entity-Crops-871a95e5-25de-5716-9136-59493b39599b" class="er entityLabel">Crops</text><rect height="23" width="54.095550537109375" y="24" x="0" class="er attributeBoxOdd"/><text style="dominant-baseline: middle; font-size: 10.2px;" transform="translate(5,35.5)" y="0" x="0" id="text-entity-Crops-871a95e5-25de-5716-9136-59493b39599b-attr-1-type" class="er entityLabel">String</text><rect height="23" width="78.24079895019531" y="24" x="54.095550537109375" class="er attributeBoxOdd"/><text style="dominant-baseline: middle; font-size: 10.2px;" transform="translate(59.095550537109375,35.5)" y="0" x="0" id="text-entity-Crops-871a95e5-25de-5716-9136-59493b39599b-attr-1-name" class="er entityLabel">id</text><rect height="23" width="22.578125" y="24" x="132.3363494873047" class="er attributeBoxOdd"/><text style="dominant-baseline: middle; font-size: 10.2px;" transform="translate(137.3363494873047,35.5)" y="0" x="0" id="text-entity-Crops-871a95e5-25de-5716-9136-59493b39599b-attr-1-comment" class="er entityLabel">🗝️</text><rect height="22" width="54.095550537109375" y="47" x="0" class="er attributeBoxEven"/><text style="dominant-baseline: middle; font-size: 10.2px;" transform="translate(5,58)" y="0" x="0" id="text-entity-Crops-871a95e5-25de-5716-9136-59493b39599b-attr-2-type" class="er entityLabel">String</text><rect height="22" width="78.24079895019531" y="47" x="54.095550537109375" class="er attributeBoxEven"/><text style="dominant-baseline: middle; font-size: 10.2px;" transform="translate(59.095550537109375,58)" y="0" x="0" id="text-entity-Crops-871a95e5-25de-5716-9136-59493b39599b-attr-2-name" class="er entityLabel">name</text><rect height="22" width="22.578125" y="47" x="132.3363494873047" class="er attributeBoxEven"/><text style="dominant-baseline: middle; font-size: 10.2px;" transform="translate(137.3363494873047,58)" y="0" x="0" id="text-entity-Crops-871a95e5-25de-5716-9136-59493b39599b-attr-2-comment" class="er entityLabel"/><rect height="22" width="54.095550537109375" y="69" x="0" class="er attributeBoxOdd"/><text style="dominant-baseline: middle; font-size: 10.2px;" transform="translate(5,80)" y="0" x="0" id="text-entity-Crops-871a95e5-25de-5716-9136-59493b39599b-attr-3-type" class="er entityLabel">String</text><rect height="22" width="78.24079895019531" y="69" x="54.095550537109375" class="er attributeBoxOdd"/><text style="dominant-baseline: middle; font-size: 10.2px;" transform="translate(59.095550537109375,80)" y="0" x="0" id="text-entity-Crops-871a95e5-25de-5716-9136-59493b39599b-attr-3-name" class="er entityLabel">scientificName</text><rect height="22" width="22.578125" y="69" x="132.3363494873047" class="er attributeBoxOdd"/><text style="dominant-baseline: middle; font-size: 10.2px;" transform="translate(137.3363494873047,80)" y="0" x="0" id="text-entity-Crops-871a95e5-25de-5716-9136-59493b39599b-attr-3-comment" class="er entityLabel"/><rect height="22" width="54.095550537109375" y="91" x="0" class="er attributeBoxEven"/><text style="dominant-baseline: middle; font-size: 10.2px;" transform="translate(5,102)" y="0" x="0" id="text-entity-Crops-871a95e5-25de-5716-9136-59493b39599b-attr-4-type" class="er entityLabel">DateTime</text><rect height="22" width="78.24079895019531" y="91" x="54.095550537109375" class="er attributeBoxEven"/><text style="dominant-baseline: middle; font-size: 10.2px;" transform="translate(59.095550537109375,102)" y="0" x="0" id="text-entity-Crops-871a95e5-25de-5716-9136-59493b39599b-attr-4-name" class="er entityLabel">createdAt</text><rect height="22" width="22.578125" y="91" x="132.3363494873047" class="er attributeBoxEven"/><text style="dominant-baseline: middle; font-size: 10.2px;" transform="translate(137.3363494873047,102)" y="0" x="0" id="text-entity-Crops-871a95e5-25de-5716-9136-59493b39599b-attr-4-comment" class="er entityLabel"/><rect height="22" width="54.095550537109375" y="113" x="0" class="er attributeBoxOdd"/><text style="dominant-baseline: middle; font-size: 10.2px;" transform="translate(5,124)" y="0" x="0" id="text-entity-Crops-871a95e5-25de-5716-9136-59493b39599b-attr-5-type" class="er entityLabel">DateTime</text><rect height="22" width="78.24079895019531" y="113" x="54.095550537109375" class="er attributeBoxOdd"/><text style="dominant-baseline: middle; font-size: 10.2px;" transform="translate(59.095550537109375,124)" y="0" x="0" id="text-entity-Crops-871a95e5-25de-5716-9136-59493b39599b-attr-5-name" class="er entityLabel">updatedAt</text><rect height="22" width="22.578125" y="113" x="132.3363494873047" class="er attributeBoxOdd"/><text style="dominant-baseline: middle; font-size: 10.2px;" transform="translate(137.3363494873047,124)" y="0" x="0" id="text-entity-Crops-871a95e5-25de-5716-9136-59493b39599b-attr-5-comment" class="er entityLabel"/></g><g transform="translate(248.0413055419922,256 )" id="entity-Constant-7fcc493b-c863-573b-9397-710734e84981"><rect height="179" width="157.5015106201172" y="0" x="0" class="er entityBox"/><text style="dominant-baseline: middle; text-anchor: middle; font-size: 12px;" transform="translate(78.7507553100586,12)" y="0" x="0" id="text-entity-Constant-7fcc493b-c863-573b-9397-710734e84981" class="er entityLabel">Constant</text><rect height="23" width="76.31944274902344" y="24" x="0" class="er attributeBoxOdd"/><text style="dominant-baseline: middle; font-size: 10.2px;" transform="translate(5,35.5)" y="0" x="0" id="text-entity-Constant-7fcc493b-c863-573b-9397-710734e84981-attr-1-type" class="er entityLabel">String</text><rect height="23" width="58.60394287109375" y="24" x="76.31944274902344" class="er attributeBoxOdd"/><text style="dominant-baseline: middle; font-size: 10.2px;" transform="translate(81.31944274902344,35.5)" y="0" x="0" id="text-entity-Constant-7fcc493b-c863-573b-9397-710734e84981-attr-1-name" class="er entityLabel">id</text><rect height="23" width="22.578125" y="24" x="134.9233856201172" class="er attributeBoxOdd"/><text style="dominant-baseline: middle; font-size: 10.2px;" transform="translate(139.9233856201172,35.5)" y="0" x="0" id="text-entity-Constant-7fcc493b-c863-573b-9397-710734e84981-attr-1-comment" class="er entityLabel">🗝️</text><rect height="22" width="76.31944274902344" y="47" x="0" class="er attributeBoxEven"/><text style="dominant-baseline: middle; font-size: 10.2px;" transform="translate(5,58)" y="0" x="0" id="text-entity-Constant-7fcc493b-c863-573b-9397-710734e84981-attr-2-type" class="er entityLabel">Float</text><rect height="22" width="58.60394287109375" y="47" x="76.31944274902344" class="er attributeBoxEven"/><text style="dominant-baseline: middle; font-size: 10.2px;" transform="translate(81.31944274902344,58)" y="0" x="0" id="text-entity-Constant-7fcc493b-c863-573b-9397-710734e84981-attr-2-name" class="er entityLabel">value</text><rect height="22" width="22.578125" y="47" x="134.9233856201172" class="er attributeBoxEven"/><text style="dominant-baseline: middle; font-size: 10.2px;" transform="translate(139.9233856201172,58)" y="0" x="0" id="text-entity-Constant-7fcc493b-c863-573b-9397-710734e84981-attr-2-comment" class="er entityLabel"/><rect height="22" width="76.31944274902344" y="69" x="0" class="er attributeBoxOdd"/><text style="dominant-baseline: middle; font-size: 10.2px;" transform="translate(5,80)" y="0" x="0" id="text-entity-Constant-7fcc493b-c863-573b-9397-710734e84981-attr-3-type" class="er entityLabel">String</text><rect height="22" width="58.60394287109375" y="69" x="76.31944274902344" class="er attributeBoxOdd"/><text style="dominant-baseline: middle; font-size: 10.2px;" transform="translate(81.31944274902344,80)" y="0" x="0" id="text-entity-Constant-7fcc493b-c863-573b-9397-710734e84981-attr-3-name" class="er entityLabel">reference</text><rect height="22" width="22.578125" y="69" x="134.9233856201172" class="er attributeBoxOdd"/><text style="dominant-baseline: middle; font-size: 10.2px;" transform="translate(139.9233856201172,80)" y="0" x="0" id="text-entity-Constant-7fcc493b-c863-573b-9397-710734e84981-attr-3-comment" class="er entityLabel"/><rect height="22" width="76.31944274902344" y="91" x="0" class="er attributeBoxEven"/><text style="dominant-baseline: middle; font-size: 10.2px;" transform="translate(5,102)" y="0" x="0" id="text-entity-Constant-7fcc493b-c863-573b-9397-710734e84981-attr-4-type" class="er entityLabel">String</text><rect height="22" width="58.60394287109375" y="91" x="76.31944274902344" class="er attributeBoxEven"/><text style="dominant-baseline: middle; font-size: 10.2px;" transform="translate(81.31944274902344,102)" y="0" x="0" id="text-entity-Constant-7fcc493b-c863-573b-9397-710734e84981-attr-4-name" class="er entityLabel">comment</text><rect height="22" width="22.578125" y="91" x="134.9233856201172" class="er attributeBoxEven"/><text style="dominant-baseline: middle; font-size: 10.2px;" transform="translate(139.9233856201172,102)" y="0" x="0" id="text-entity-Constant-7fcc493b-c863-573b-9397-710734e84981-attr-4-comment" class="er entityLabel"/><rect height="22" width="76.31944274902344" y="113" x="0" class="er attributeBoxOdd"/><text style="dominant-baseline: middle; font-size: 10.2px;" transform="translate(5,124)" y="0" x="0" id="text-entity-Constant-7fcc493b-c863-573b-9397-710734e84981-attr-5-type" class="er entityLabel">ConstantTypes</text><rect height="22" width="58.60394287109375" y="113" x="76.31944274902344" class="er attributeBoxOdd"/><text style="dominant-baseline: middle; font-size: 10.2px;" transform="translate(81.31944274902344,124)" y="0" x="0" id="text-entity-Constant-7fcc493b-c863-573b-9397-710734e84981-attr-5-name" class="er entityLabel">type</text><rect height="22" width="22.578125" y="113" x="134.9233856201172" class="er attributeBoxOdd"/><text style="dominant-baseline: middle; font-size: 10.2px;" transform="translate(139.9233856201172,124)" y="0" x="0" id="text-entity-Constant-7fcc493b-c863-573b-9397-710734e84981-attr-5-comment" class="er entityLabel"/><rect height="22" width="76.31944274902344" y="135" x="0" class="er attributeBoxEven"/><text style="dominant-baseline: middle; font-size: 10.2px;" transform="translate(5,146)" y="0" x="0" id="text-entity-Constant-7fcc493b-c863-573b-9397-710734e84981-attr-6-type" class="er entityLabel">DateTime</text><rect height="22" width="58.60394287109375" y="135" x="76.31944274902344" class="er attributeBoxEven"/><text style="dominant-baseline: middle; font-size: 10.2px;" transform="translate(81.31944274902344,146)" y="0" x="0" id="text-entity-Constant-7fcc493b-c863-573b-9397-710734e84981-attr-6-name" class="er entityLabel">createdAt</text><rect height="22" width="22.578125" y="135" x="134.9233856201172" class="er attributeBoxEven"/><text style="dominant-baseline: middle; font-size: 10.2px;" transform="translate(139.9233856201172,146)" y="0" x="0" id="text-entity-Constant-7fcc493b-c863-573b-9397-710734e84981-attr-6-comment" class="er entityLabel"/><rect height="22" width="76.31944274902344" y="157" x="0" class="er attributeBoxOdd"/><text style="dominant-baseline: middle; font-size: 10.2px;" transform="translate(5,168)" y="0" x="0" id="text-entity-Constant-7fcc493b-c863-573b-9397-710734e84981-attr-7-type" class="er entityLabel">DateTime</text><rect height="22" width="58.60394287109375" y="157" x="76.31944274902344" class="er attributeBoxOdd"/><text style="dominant-baseline: middle; font-size: 10.2px;" transform="translate(81.31944274902344,168)" y="0" x="0" id="text-entity-Constant-7fcc493b-c863-573b-9397-710734e84981-attr-7-name" class="er entityLabel">updatedAt</text><rect height="22" width="22.578125" y="157" x="134.9233856201172" class="er attributeBoxOdd"/><text style="dominant-baseline: middle; font-size: 10.2px;" transform="translate(139.9233856201172,168)" y="0" x="0" id="text-entity-Constant-7fcc493b-c863-573b-9397-710734e84981-attr-7-comment" class="er entityLabel"/></g><rect height="14" width="51.171875" y="198.32774353027344" x="257.7827453613281" class="er relationshipLabelBox"/><text style="text-anchor: middle; dominant-baseline: middle; font-size: 12px;" y="205.32774353027344" x="283.3686828613281" id="rel1" class="er relationshipLabel">constants</text><rect height="14" width="58.38671875" y="478" x="297.59869384765625" class="er relationshipLabelBox"/><text style="text-anchor: middle; dominant-baseline: middle; font-size: 12px;" y="485" x="326.79205322265625" id="rel2" class="er relationshipLabel">enum:type</text><rect height="14" width="29.966796875" y="198.32774353027344" x="355.2320861816406" class="er relationshipLabelBox"/><text style="text-anchor: middle; dominant-baseline: middle; font-size: 12px;" y="205.32774353027344" x="370.2154846191406" id="rel3" class="er relationshipLabel">Crops</text></svg>