<svg aria-roledescription="er" role="graphics-document document" viewBox="0 0 775.9991455078125 1118" style="max-width: 775.999px; background-color: white;" xmlns:xlink="http://www.w3.org/1999/xlink" xmlns="http://www.w3.org/2000/svg" width="100%" id="my-svg"><style>#my-svg{font-family:"trebuchet ms",verdana,arial,sans-serif;font-size:16px;fill:#000000;}#my-svg .error-icon{fill:#552222;}#my-svg .error-text{fill:#552222;stroke:#552222;}#my-svg .edge-thickness-normal{stroke-width:2px;}#my-svg .edge-thickness-thick{stroke-width:3.5px;}#my-svg .edge-pattern-solid{stroke-dasharray:0;}#my-svg .edge-pattern-dashed{stroke-dasharray:3;}#my-svg .edge-pattern-dotted{stroke-dasharray:2;}#my-svg .marker{fill:#000000;stroke:#000000;}#my-svg .marker.cross{stroke:#000000;}#my-svg svg{font-family:"trebuchet ms",verdana,arial,sans-serif;font-size:16px;}#my-svg .entityBox{fill:#cde498;stroke:#13540c;}#my-svg .attributeBoxOdd{fill:#ffffff;stroke:#13540c;}#my-svg .attributeBoxEven{fill:#f2f2f2;stroke:#13540c;}#my-svg .relationshipLabelBox{fill:hsl(78.1578947368, 58.4615384615%, 84.5098039216%);opacity:0.7;background-color:hsl(78.1578947368, 58.4615384615%, 84.5098039216%);}#my-svg .relationshipLabelBox rect{opacity:0.5;}#my-svg .relationshipLine{stroke:#000000;}#my-svg .entityTitleText{text-anchor:middle;font-size:18px;fill:#000000;}#my-svg #MD_PARENT_START{fill:#f5f5f5!important;stroke:#000000!important;stroke-width:1;}#my-svg #MD_PARENT_END{fill:#f5f5f5!important;stroke:#000000!important;stroke-width:1;}#my-svg :root{--mermaid-font-family:"trebuchet ms",verdana,arial,sans-serif;}</style><g/><defs><marker orient="auto" markerHeight="240" markerWidth="190" refY="7" refX="0" id="MD_PARENT_START"><path d="M 18,7 L9,13 L1,7 L9,1 Z"/></marker></defs><defs><marker orient="auto" markerHeight="28" markerWidth="20" refY="7" refX="19" id="MD_PARENT_END"><path d="M 18,7 L9,13 L1,7 L9,1 Z"/></marker></defs><defs><marker orient="auto" markerHeight="18" markerWidth="18" refY="9" refX="0" id="ONLY_ONE_START"><path d="M9,0 L9,18 M15,0 L15,18" fill="none" stroke="gray"/></marker></defs><defs><marker orient="auto" markerHeight="18" markerWidth="18" refY="9" refX="18" id="ONLY_ONE_END"><path d="M3,0 L3,18 M9,0 L9,18" fill="none" stroke="gray"/></marker></defs><defs><marker orient="auto" markerHeight="18" markerWidth="30" refY="9" refX="0" id="ZERO_OR_ONE_START"><circle r="6" cy="9" cx="21" fill="white" stroke="gray"/><path d="M9,0 L9,18" fill="none" stroke="gray"/></marker></defs><defs><marker orient="auto" markerHeight="18" markerWidth="30" refY="9" refX="30" id="ZERO_OR_ONE_END"><circle r="6" cy="9" cx="9" fill="white" stroke="gray"/><path d="M21,0 L21,18" fill="none" stroke="gray"/></marker></defs><defs><marker orient="auto" markerHeight="36" markerWidth="45" refY="18" refX="18" id="ONE_OR_MORE_START"><path d="M0,18 Q 18,0 36,18 Q 18,36 0,18 M42,9 L42,27" fill="none" stroke="gray"/></marker></defs><defs><marker orient="auto" markerHeight="36" markerWidth="45" refY="18" refX="27" id="ONE_OR_MORE_END"><path d="M3,9 L3,27 M9,18 Q27,0 45,18 Q27,36 9,18" fill="none" stroke="gray"/></marker></defs><defs><marker orient="auto" markerHeight="36" markerWidth="57" refY="18" refX="18" id="ZERO_OR_MORE_START"><circle r="6" cy="18" cx="48" fill="white" stroke="gray"/><path d="M0,18 Q18,0 36,18 Q18,36 0,18" fill="none" stroke="gray"/></marker></defs><defs><marker orient="auto" markerHeight="36" markerWidth="57" refY="18" refX="39" id="ZERO_OR_MORE_END"><circle r="6" cy="18" cx="9" fill="white" stroke="gray"/><path d="M21,18 Q39,0 57,18 Q39,36 21,18" fill="none" stroke="gray"/></marker></defs><path style="stroke: gray; fill: none;" marker-start="url(#ZERO_OR_ONE_START)" marker-end="url(#ONLY_ONE_END)" d="M286.77202224731445,132.81768889923416L253.71647516886392,148.34807408269512C220.66092809041342,163.8784592661561,154.54983393351236,194.93922963307804,121.49428685506184,227.969614816539C88.43873977661133,261,88.43873977661133,296,88.43873977661133,313.5L88.43873977661133,331" class="er relationshipLine"/><path style="stroke: gray; fill: none;" marker-start="url(#ZERO_OR_MORE_START)" marker-end="url(#ZERO_OR_MORE_END)" d="M299.9420051574707,176L293.431588490804,184.33333333333334C286.9211718241374,192.66666666666666,273.900338490804,209.33333333333334,277.9460512797038,227.4486799621582C281.9917640686035,245.56402659098308,303.1040229797363,265.12805318196615,313.66015243530273,274.9100664774577L324.21628189086914,284.6920797729492" class="er relationshipLine"/><path style="stroke: gray; fill: none;" marker-start="url(#ZERO_OR_MORE_START)" marker-end="url(#ZERO_OR_MORE_END)" d="M360.8795051574707,176L360.8795051574707,184.33333333333334C360.8795051574707,192.66666666666666,360.8795051574707,209.33333333333334,363.87710707593595,226C366.87470899440115,242.66666666666666,372.86991283133165,259.3333333333333,375.86751474979684,267.6666666666667L378.8651166682621,276" class="er relationshipLine"/><path style="stroke: gray; fill: none;" marker-start="url(#ZERO_OR_ONE_START)" marker-end="url(#ONLY_ONE_END)" d="M355.04806227649715,454L349.82039908539474,462.3333333333333C344.5927358942924,470.6666666666667,334.1374095120876,487.3333333333333,328.9097463209852,504C323.6820831298828,520.6666666666666,323.6820831298828,537.3333333333334,323.6820831298828,545.6666666666666L323.6820831298828,554" class="er relationshipLine"/><path style="stroke: gray; fill: none;" marker-start="url(#ZERO_OR_ONE_START)" marker-end="url(#ONLY_ONE_END)" d="M324.21628189086914,400.7983580260558L282.57663027445477,417.9986316883798C240.93697865804037,435.19890535070385,157.65767542521158,469.59945267535187,116.0180238087972,507.9663930043426C74.37837219238281,546.3333333333334,74.37837219238281,588.6666666666666,74.37837219238281,609.8333333333334L74.37837219238281,631" class="er relationshipLine"/><path style="stroke: gray; fill: none;" marker-start="url(#ZERO_OR_ONE_START)" marker-end="url(#ONLY_ONE_END)" d="M442.8938936466793,276L445.89149556514457,267.6666666666667C448.88909748360976,259.3333333333333,454.88430132054026,242.66666666666666,451.3714865723388,226C447.8586718241374,209.33333333333334,434.837838490804,192.66666666666666,428.3274218241374,184.33333333333334L421.8170051574707,176" class="er relationshipLine"/><path style="stroke: gray; fill: none;" marker-start="url(#ZERO_OR_ONE_START)" marker-end="url(#ZERO_OR_ONE_END)" d="M497.54272842407227,284.6920797729492L508.0988578796387,274.9100664774577C518.6549873352051,265.12805318196615,539.7672462463379,245.56402659098308,529.3412895202637,222.35347813924156C518.9153327941895,199.14292968750001,476.9511604309082,172.285859375,455.9690742492676,158.85732421875002L434.98698806762695,145.42878906250002" class="er relationshipLine"/><path style="stroke: gray; fill: none;" marker-start="url(#ZERO_OR_MORE_START)" marker-end="url(#ZERO_OR_MORE_END)" d="M497.54272842407227,452.8018541167293L505.96509488423663,461.3348784306077C514.387461344401,469.86790274448623,531.2321942647299,486.93395137224314,543.6758785543516,509.3003090194549C556.1195628439733,531.6666666666666,564.162198502888,559.3333333333334,568.1835163323454,573.1666666666666L572.2048341618028,587" class="er relationshipLine"/><path style="stroke: gray; fill: none;" marker-start="url(#ZERO_OR_ONE_START)" marker-end="url(#ONLY_ONE_END)" d="M598.0769271850586,765L598.0769271850586,778.8333333333334C598.0769271850586,792.6666666666666,598.0769271850586,820.3333333333334,598.0769271850586,842.5C598.0769271850586,864.6666666666666,598.0769271850586,881.3333333333334,598.0769271850586,889.6666666666666L598.0769271850586,898" class="er relationshipLine"/><path style="stroke: gray; fill: none;" marker-start="url(#ZERO_OR_ONE_START)" marker-end="url(#ONLY_ONE_END)" d="M623.9490202083144,587L627.9703380377717,573.1666666666666C631.9916558672292,559.3333333333334,640.0342915261439,531.6666666666666,618.9665762287701,503.1309155126881C597.8988609313965,474.59516435870955,547.7207946777344,445.1903287174191,522.6317615509033,430.4879108967739L497.54272842407227,415.7854930761286" class="er relationshipLine"/><g transform="translate(30.22043228149414,331 )" id="entity-UserRoles-7318d076-05e7-5f53-9d2c-00e952827421"><rect height="68" width="116.43661499023438" y="0" x="0" class="er entityBox"/><text style="dominant-baseline: middle; text-anchor: middle; font-size: 12px;" transform="translate(58.21830749511719,12)" y="0" x="0" id="text-entity-UserRoles-7318d076-05e7-5f53-9d2c-00e952827421" class="er entityLabel">UserRoles</text><rect height="22" width="58.21830749511719" y="24" x="0" class="er attributeBoxOdd"/><text style="dominant-baseline: middle; font-size: 10.2px;" transform="translate(5,35)" y="0" x="0" id="text-entity-UserRoles-7318d076-05e7-5f53-9d2c-00e952827421-attr-1-type" class="er entityLabel">ADMIN</text><rect height="22" width="58.21830749511719" y="24" x="58.21830749511719" class="er attributeBoxOdd"/><text style="dominant-baseline: middle; font-size: 10.2px;" transform="translate(63.21830749511719,35)" y="0" x="0" id="text-entity-UserRoles-7318d076-05e7-5f53-9d2c-00e952827421-attr-1-name" class="er entityLabel">ADMIN</text><rect height="22" width="58.21830749511719" y="46" x="0" class="er attributeBoxEven"/><text style="dominant-baseline: middle; font-size: 10.2px;" transform="translate(5,57)" y="0" x="0" id="text-entity-UserRoles-7318d076-05e7-5f53-9d2c-00e952827421-attr-2-type" class="er entityLabel">OPERATOR</text><rect height="22" width="58.21830749511719" y="46" x="58.21830749511719" class="er attributeBoxEven"/><text style="dominant-baseline: middle; font-size: 10.2px;" transform="translate(63.21830749511719,57)" y="0" x="0" id="text-entity-UserRoles-7318d076-05e7-5f53-9d2c-00e952827421-attr-2-name" class="er entityLabel">OPERATOR</text></g><g transform="translate(20,631 )" id="entity-ReviewStatus-40cb9360-b57c-569e-9dad-866f4e30fc6e"><rect height="90" width="108.75674438476562" y="0" x="0" class="er entityBox"/><text style="dominant-baseline: middle; text-anchor: middle; font-size: 12px;" transform="translate(54.37837219238281,12)" y="0" x="0" id="text-entity-ReviewStatus-40cb9360-b57c-569e-9dad-866f4e30fc6e" class="er entityLabel">ReviewStatus</text><rect height="22" width="54.37837219238281" y="24" x="0" class="er attributeBoxOdd"/><text style="dominant-baseline: middle; font-size: 10.2px;" transform="translate(5,35)" y="0" x="0" id="text-entity-ReviewStatus-40cb9360-b57c-569e-9dad-866f4e30fc6e-attr-1-type" class="er entityLabel">Pending</text><rect height="22" width="54.37837219238281" y="24" x="54.37837219238281" class="er attributeBoxOdd"/><text style="dominant-baseline: middle; font-size: 10.2px;" transform="translate(59.37837219238281,35)" y="0" x="0" id="text-entity-ReviewStatus-40cb9360-b57c-569e-9dad-866f4e30fc6e-attr-1-name" class="er entityLabel">Pending</text><rect height="22" width="54.37837219238281" y="46" x="0" class="er attributeBoxEven"/><text style="dominant-baseline: middle; font-size: 10.2px;" transform="translate(5,57)" y="0" x="0" id="text-entity-ReviewStatus-40cb9360-b57c-569e-9dad-866f4e30fc6e-attr-2-type" class="er entityLabel">Approved</text><rect height="22" width="54.37837219238281" y="46" x="54.37837219238281" class="er attributeBoxEven"/><text style="dominant-baseline: middle; font-size: 10.2px;" transform="translate(59.37837219238281,57)" y="0" x="0" id="text-entity-ReviewStatus-40cb9360-b57c-569e-9dad-866f4e30fc6e-attr-2-name" class="er entityLabel">Approved</text><rect height="22" width="54.37837219238281" y="68" x="0" class="er attributeBoxOdd"/><text style="dominant-baseline: middle; font-size: 10.2px;" transform="translate(5,79)" y="0" x="0" id="text-entity-ReviewStatus-40cb9360-b57c-569e-9dad-866f4e30fc6e-attr-3-type" class="er entityLabel">Declined</text><rect height="22" width="54.37837219238281" y="68" x="54.37837219238281" class="er attributeBoxOdd"/><text style="dominant-baseline: middle; font-size: 10.2px;" transform="translate(59.37837219238281,79)" y="0" x="0" id="text-entity-ReviewStatus-40cb9360-b57c-569e-9dad-866f4e30fc6e-attr-3-name" class="er entityLabel">Declined</text></g><g transform="translate(228.75674438476562,554 )" id="entity-Climates-a21f503a-9fd6-5bc7-9cd9-e00b3cc6f36e"><rect height="244" width="189.85067749023438" y="0" x="0" class="er entityBox"/><text style="dominant-baseline: middle; text-anchor: middle; font-size: 12px;" transform="translate(94.92533874511719,12)" y="0" x="0" id="text-entity-Climates-a21f503a-9fd6-5bc7-9cd9-e00b3cc6f36e" class="er entityLabel">Climates</text><rect height="22" width="94.92533874511719" y="24" x="0" class="er attributeBoxOdd"/><text style="dominant-baseline: middle; font-size: 10.2px;" transform="translate(5,35)" y="0" x="0" id="text-entity-Climates-a21f503a-9fd6-5bc7-9cd9-e00b3cc6f36e-attr-1-type" class="er entityLabel">TropicalRainforest</text><rect height="22" width="94.92533874511719" y="24" x="94.92533874511719" class="er attributeBoxOdd"/><text style="dominant-baseline: middle; font-size: 10.2px;" transform="translate(99.92533874511719,35)" y="0" x="0" id="text-entity-Climates-a21f503a-9fd6-5bc7-9cd9-e00b3cc6f36e-attr-1-name" class="er entityLabel">TropicalRainforest</text><rect height="22" width="94.92533874511719" y="46" x="0" class="er attributeBoxEven"/><text style="dominant-baseline: middle; font-size: 10.2px;" transform="translate(5,57)" y="0" x="0" id="text-entity-Climates-a21f503a-9fd6-5bc7-9cd9-e00b3cc6f36e-attr-2-type" class="er entityLabel">Tropical</text><rect height="22" width="94.92533874511719" y="46" x="94.92533874511719" class="er attributeBoxEven"/><text style="dominant-baseline: middle; font-size: 10.2px;" transform="translate(99.92533874511719,57)" y="0" x="0" id="text-entity-Climates-a21f503a-9fd6-5bc7-9cd9-e00b3cc6f36e-attr-2-name" class="er entityLabel">Tropical</text><rect height="22" width="94.92533874511719" y="68" x="0" class="er attributeBoxOdd"/><text style="dominant-baseline: middle; font-size: 10.2px;" transform="translate(5,79)" y="0" x="0" id="text-entity-Climates-a21f503a-9fd6-5bc7-9cd9-e00b3cc6f36e-attr-3-type" class="er entityLabel">Subtropical</text><rect height="22" width="94.92533874511719" y="68" x="94.92533874511719" class="er attributeBoxOdd"/><text style="dominant-baseline: middle; font-size: 10.2px;" transform="translate(99.92533874511719,79)" y="0" x="0" id="text-entity-Climates-a21f503a-9fd6-5bc7-9cd9-e00b3cc6f36e-attr-3-name" class="er entityLabel">Subtropical</text><rect height="22" width="94.92533874511719" y="90" x="0" class="er attributeBoxEven"/><text style="dominant-baseline: middle; font-size: 10.2px;" transform="translate(5,101)" y="0" x="0" id="text-entity-Climates-a21f503a-9fd6-5bc7-9cd9-e00b3cc6f36e-attr-4-type" class="er entityLabel">Desert</text><rect height="22" width="94.92533874511719" y="90" x="94.92533874511719" class="er attributeBoxEven"/><text style="dominant-baseline: middle; font-size: 10.2px;" transform="translate(99.92533874511719,101)" y="0" x="0" id="text-entity-Climates-a21f503a-9fd6-5bc7-9cd9-e00b3cc6f36e-attr-4-name" class="er entityLabel">Desert</text><rect height="22" width="94.92533874511719" y="112" x="0" class="er attributeBoxOdd"/><text style="dominant-baseline: middle; font-size: 10.2px;" transform="translate(5,123)" y="0" x="0" id="text-entity-Climates-a21f503a-9fd6-5bc7-9cd9-e00b3cc6f36e-attr-5-type" class="er entityLabel">Temperate</text><rect height="22" width="94.92533874511719" y="112" x="94.92533874511719" class="er attributeBoxOdd"/><text style="dominant-baseline: middle; font-size: 10.2px;" transform="translate(99.92533874511719,123)" y="0" x="0" id="text-entity-Climates-a21f503a-9fd6-5bc7-9cd9-e00b3cc6f36e-attr-5-name" class="er entityLabel">Temperate</text><rect height="22" width="94.92533874511719" y="134" x="0" class="er attributeBoxEven"/><text style="dominant-baseline: middle; font-size: 10.2px;" transform="translate(5,145)" y="0" x="0" id="text-entity-Climates-a21f503a-9fd6-5bc7-9cd9-e00b3cc6f36e-attr-6-type" class="er entityLabel">Mediterranean</text><rect height="22" width="94.92533874511719" y="134" x="94.92533874511719" class="er attributeBoxEven"/><text style="dominant-baseline: middle; font-size: 10.2px;" transform="translate(99.92533874511719,145)" y="0" x="0" id="text-entity-Climates-a21f503a-9fd6-5bc7-9cd9-e00b3cc6f36e-attr-6-name" class="er entityLabel">Mediterranean</text><rect height="22" width="94.92533874511719" y="156" x="0" class="er attributeBoxOdd"/><text style="dominant-baseline: middle; font-size: 10.2px;" transform="translate(5,167)" y="0" x="0" id="text-entity-Climates-a21f503a-9fd6-5bc7-9cd9-e00b3cc6f36e-attr-7-type" class="er entityLabel">SemiArid</text><rect height="22" width="94.92533874511719" y="156" x="94.92533874511719" class="er attributeBoxOdd"/><text style="dominant-baseline: middle; font-size: 10.2px;" transform="translate(99.92533874511719,167)" y="0" x="0" id="text-entity-Climates-a21f503a-9fd6-5bc7-9cd9-e00b3cc6f36e-attr-7-name" class="er entityLabel">SemiArid</text><rect height="22" width="94.92533874511719" y="178" x="0" class="er attributeBoxEven"/><text style="dominant-baseline: middle; font-size: 10.2px;" transform="translate(5,189)" y="0" x="0" id="text-entity-Climates-a21f503a-9fd6-5bc7-9cd9-e00b3cc6f36e-attr-8-type" class="er entityLabel">Subpolar</text><rect height="22" width="94.92533874511719" y="178" x="94.92533874511719" class="er attributeBoxEven"/><text style="dominant-baseline: middle; font-size: 10.2px;" transform="translate(99.92533874511719,189)" y="0" x="0" id="text-entity-Climates-a21f503a-9fd6-5bc7-9cd9-e00b3cc6f36e-attr-8-name" class="er entityLabel">Subpolar</text><rect height="22" width="94.92533874511719" y="200" x="0" class="er attributeBoxOdd"/><text style="dominant-baseline: middle; font-size: 10.2px;" transform="translate(5,211)" y="0" x="0" id="text-entity-Climates-a21f503a-9fd6-5bc7-9cd9-e00b3cc6f36e-attr-9-type" class="er entityLabel">MountainCold</text><rect height="22" width="94.92533874511719" y="200" x="94.92533874511719" class="er attributeBoxOdd"/><text style="dominant-baseline: middle; font-size: 10.2px;" transform="translate(99.92533874511719,211)" y="0" x="0" id="text-entity-Climates-a21f503a-9fd6-5bc7-9cd9-e00b3cc6f36e-attr-9-name" class="er entityLabel">MountainCold</text><rect height="22" width="94.92533874511719" y="222" x="0" class="er attributeBoxEven"/><text style="dominant-baseline: middle; font-size: 10.2px;" transform="translate(5,233)" y="0" x="0" id="text-entity-Climates-a21f503a-9fd6-5bc7-9cd9-e00b3cc6f36e-attr-10-type" class="er entityLabel">Polar</text><rect height="22" width="94.92533874511719" y="222" x="94.92533874511719" class="er attributeBoxEven"/><text style="dominant-baseline: middle; font-size: 10.2px;" transform="translate(99.92533874511719,233)" y="0" x="0" id="text-entity-Climates-a21f503a-9fd6-5bc7-9cd9-e00b3cc6f36e-attr-10-name" class="er entityLabel">Polar</text></g><g transform="translate(440.1547164916992,898 )" id="entity-ConstantTypes-369df7e2-30fe-550e-8187-7dac32f8692a"><rect height="200" width="315.84442138671875" y="0" x="0" class="er entityBox"/><text style="dominant-baseline: middle; text-anchor: middle; font-size: 12px;" transform="translate(157.92221069335938,12)" y="0" x="0" id="text-entity-ConstantTypes-369df7e2-30fe-550e-8187-7dac32f8692a" class="er entityLabel">ConstantTypes</text><rect height="22" width="157.92221069335938" y="24" x="0" class="er attributeBoxOdd"/><text style="dominant-baseline: middle; font-size: 10.2px;" transform="translate(5,35)" y="0" x="0" id="text-entity-ConstantTypes-369df7e2-30fe-550e-8187-7dac32f8692a-attr-1-type" class="er entityLabel">HARVEST_INDEX</text><rect height="22" width="157.92221069335938" y="24" x="157.92221069335938" class="er attributeBoxOdd"/><text style="dominant-baseline: middle; font-size: 10.2px;" transform="translate(162.92221069335938,35)" y="0" x="0" id="text-entity-ConstantTypes-369df7e2-30fe-550e-8187-7dac32f8692a-attr-1-name" class="er entityLabel">HARVEST_INDEX</text><rect height="22" width="157.92221069335938" y="46" x="0" class="er attributeBoxEven"/><text style="dominant-baseline: middle; font-size: 10.2px;" transform="translate(5,57)" y="0" x="0" id="text-entity-ConstantTypes-369df7e2-30fe-550e-8187-7dac32f8692a-attr-2-type" class="er entityLabel">AERIAL_RESIDUE_INDEX</text><rect height="22" width="157.92221069335938" y="46" x="157.92221069335938" class="er attributeBoxEven"/><text style="dominant-baseline: middle; font-size: 10.2px;" transform="translate(162.92221069335938,57)" y="0" x="0" id="text-entity-ConstantTypes-369df7e2-30fe-550e-8187-7dac32f8692a-attr-2-name" class="er entityLabel">AERIAL_RESIDUE_INDEX</text><rect height="22" width="157.92221069335938" y="68" x="0" class="er attributeBoxOdd"/><text style="dominant-baseline: middle; font-size: 10.2px;" transform="translate(5,79)" y="0" x="0" id="text-entity-ConstantTypes-369df7e2-30fe-550e-8187-7dac32f8692a-attr-3-type" class="er entityLabel">PRODUCT_RESIDUE_INDEX</text><rect height="22" width="157.92221069335938" y="68" x="157.92221069335938" class="er attributeBoxOdd"/><text style="dominant-baseline: middle; font-size: 10.2px;" transform="translate(162.92221069335938,79)" y="0" x="0" id="text-entity-ConstantTypes-369df7e2-30fe-550e-8187-7dac32f8692a-attr-3-name" class="er entityLabel">PRODUCT_RESIDUE_INDEX</text><rect height="22" width="157.92221069335938" y="90" x="0" class="er attributeBoxEven"/><text style="dominant-baseline: middle; font-size: 10.2px;" transform="translate(5,101)" y="0" x="0" id="text-entity-ConstantTypes-369df7e2-30fe-550e-8187-7dac32f8692a-attr-4-type" class="er entityLabel">PRODUCT_DRY_MATTER_FACTOR</text><rect height="22" width="157.92221069335938" y="90" x="157.92221069335938" class="er attributeBoxEven"/><text style="dominant-baseline: middle; font-size: 10.2px;" transform="translate(162.92221069335938,101)" y="0" x="0" id="text-entity-ConstantTypes-369df7e2-30fe-550e-8187-7dac32f8692a-attr-4-name" class="er entityLabel">PRODUCT_DRY_MATTER_FACTOR</text><rect height="22" width="157.92221069335938" y="112" x="0" class="er attributeBoxOdd"/><text style="dominant-baseline: middle; font-size: 10.2px;" transform="translate(5,123)" y="0" x="0" id="text-entity-ConstantTypes-369df7e2-30fe-550e-8187-7dac32f8692a-attr-5-type" class="er entityLabel">RESIDUE_DRY_MATTER_FACTOR</text><rect height="22" width="157.92221069335938" y="112" x="157.92221069335938" class="er attributeBoxOdd"/><text style="dominant-baseline: middle; font-size: 10.2px;" transform="translate(162.92221069335938,123)" y="0" x="0" id="text-entity-ConstantTypes-369df7e2-30fe-550e-8187-7dac32f8692a-attr-5-name" class="er entityLabel">RESIDUE_DRY_MATTER_FACTOR</text><rect height="22" width="157.92221069335938" y="134" x="0" class="er attributeBoxEven"/><text style="dominant-baseline: middle; font-size: 10.2px;" transform="translate(5,145)" y="0" x="0" id="text-entity-ConstantTypes-369df7e2-30fe-550e-8187-7dac32f8692a-attr-6-type" class="er entityLabel">BELOWGROUND_INDEX</text><rect height="22" width="157.92221069335938" y="134" x="157.92221069335938" class="er attributeBoxEven"/><text style="dominant-baseline: middle; font-size: 10.2px;" transform="translate(162.92221069335938,145)" y="0" x="0" id="text-entity-ConstantTypes-369df7e2-30fe-550e-8187-7dac32f8692a-attr-6-name" class="er entityLabel">BELOWGROUND_INDEX</text><rect height="22" width="157.92221069335938" y="156" x="0" class="er attributeBoxOdd"/><text style="dominant-baseline: middle; font-size: 10.2px;" transform="translate(5,167)" y="0" x="0" id="text-entity-ConstantTypes-369df7e2-30fe-550e-8187-7dac32f8692a-attr-7-type" class="er entityLabel">WEED_AERIAL_FACTOR</text><rect height="22" width="157.92221069335938" y="156" x="157.92221069335938" class="er attributeBoxOdd"/><text style="dominant-baseline: middle; font-size: 10.2px;" transform="translate(162.92221069335938,167)" y="0" x="0" id="text-entity-ConstantTypes-369df7e2-30fe-550e-8187-7dac32f8692a-attr-7-name" class="er entityLabel">WEED_AERIAL_FACTOR</text><rect height="22" width="157.92221069335938" y="178" x="0" class="er attributeBoxEven"/><text style="dominant-baseline: middle; font-size: 10.2px;" transform="translate(5,189)" y="0" x="0" id="text-entity-ConstantTypes-369df7e2-30fe-550e-8187-7dac32f8692a-attr-8-type" class="er entityLabel">WEED_BELOWGROUND_INDEX</text><rect height="22" width="157.92221069335938" y="178" x="157.92221069335938" class="er attributeBoxEven"/><text style="dominant-baseline: middle; font-size: 10.2px;" transform="translate(162.92221069335938,189)" y="0" x="0" id="text-entity-ConstantTypes-369df7e2-30fe-550e-8187-7dac32f8692a-attr-8-name" class="er entityLabel">WEED_BELOWGROUND_INDEX</text></g><g transform="translate(286.77202224731445,20 )" id="entity-User-818c511a-4a32-5484-ba70-875d765a9175"><rect height="156" width="148.2149658203125" y="0" x="0" class="er entityBox"/><text style="dominant-baseline: middle; text-anchor: middle; font-size: 12px;" transform="translate(74.10748291015625,12)" y="0" x="0" id="text-entity-User-818c511a-4a32-5484-ba70-875d765a9175" class="er entityLabel">User</text><rect height="22" width="54.83869934082031" y="24" x="0" class="er attributeBoxOdd"/><text style="dominant-baseline: middle; font-size: 10.2px;" transform="translate(5,35)" y="0" x="0" id="text-entity-User-818c511a-4a32-5484-ba70-875d765a9175-attr-1-type" class="er entityLabel">String</text><rect height="22" width="69.36064147949219" y="24" x="54.83869934082031" class="er attributeBoxOdd"/><text style="dominant-baseline: middle; font-size: 10.2px;" transform="translate(59.83869934082031,35)" y="0" x="0" id="text-entity-User-818c511a-4a32-5484-ba70-875d765a9175-attr-1-name" class="er entityLabel">id</text><rect height="22" width="24.015625" y="24" x="124.1993408203125" class="er attributeBoxOdd"/><text style="dominant-baseline: middle; font-size: 10.2px;" transform="translate(129.1993408203125,35)" y="0" x="0" id="text-entity-User-818c511a-4a32-5484-ba70-875d765a9175-attr-1-comment" class="er entityLabel">🗝️</text><rect height="22" width="54.83869934082031" y="46" x="0" class="er attributeBoxEven"/><text style="dominant-baseline: middle; font-size: 10.2px;" transform="translate(5,57)" y="0" x="0" id="text-entity-User-818c511a-4a32-5484-ba70-875d765a9175-attr-2-type" class="er entityLabel">String</text><rect height="22" width="69.36064147949219" y="46" x="54.83869934082031" class="er attributeBoxEven"/><text style="dominant-baseline: middle; font-size: 10.2px;" transform="translate(59.83869934082031,57)" y="0" x="0" id="text-entity-User-818c511a-4a32-5484-ba70-875d765a9175-attr-2-name" class="er entityLabel">name</text><rect height="22" width="24.015625" y="46" x="124.1993408203125" class="er attributeBoxEven"/><text style="dominant-baseline: middle; font-size: 10.2px;" transform="translate(129.1993408203125,57)" y="0" x="0" id="text-entity-User-818c511a-4a32-5484-ba70-875d765a9175-attr-2-comment" class="er entityLabel"/><rect height="22" width="54.83869934082031" y="68" x="0" class="er attributeBoxOdd"/><text style="dominant-baseline: middle; font-size: 10.2px;" transform="translate(5,79)" y="0" x="0" id="text-entity-User-818c511a-4a32-5484-ba70-875d765a9175-attr-3-type" class="er entityLabel">String</text><rect height="22" width="69.36064147949219" y="68" x="54.83869934082031" class="er attributeBoxOdd"/><text style="dominant-baseline: middle; font-size: 10.2px;" transform="translate(59.83869934082031,79)" y="0" x="0" id="text-entity-User-818c511a-4a32-5484-ba70-875d765a9175-attr-3-name" class="er entityLabel">email</text><rect height="22" width="24.015625" y="68" x="124.1993408203125" class="er attributeBoxOdd"/><text style="dominant-baseline: middle; font-size: 10.2px;" transform="translate(129.1993408203125,79)" y="0" x="0" id="text-entity-User-818c511a-4a32-5484-ba70-875d765a9175-attr-3-comment" class="er entityLabel"/><rect height="22" width="54.83869934082031" y="90" x="0" class="er attributeBoxEven"/><text style="dominant-baseline: middle; font-size: 10.2px;" transform="translate(5,101)" y="0" x="0" id="text-entity-User-818c511a-4a32-5484-ba70-875d765a9175-attr-4-type" class="er entityLabel">String</text><rect height="22" width="69.36064147949219" y="90" x="54.83869934082031" class="er attributeBoxEven"/><text style="dominant-baseline: middle; font-size: 10.2px;" transform="translate(59.83869934082031,101)" y="0" x="0" id="text-entity-User-818c511a-4a32-5484-ba70-875d765a9175-attr-4-name" class="er entityLabel">password</text><rect height="22" width="24.015625" y="90" x="124.1993408203125" class="er attributeBoxEven"/><text style="dominant-baseline: middle; font-size: 10.2px;" transform="translate(129.1993408203125,101)" y="0" x="0" id="text-entity-User-818c511a-4a32-5484-ba70-875d765a9175-attr-4-comment" class="er entityLabel"/><rect height="22" width="54.83869934082031" y="112" x="0" class="er attributeBoxOdd"/><text style="dominant-baseline: middle; font-size: 10.2px;" transform="translate(5,123)" y="0" x="0" id="text-entity-User-818c511a-4a32-5484-ba70-875d765a9175-attr-5-type" class="er entityLabel">UserRoles</text><rect height="22" width="69.36064147949219" y="112" x="54.83869934082031" class="er attributeBoxOdd"/><text style="dominant-baseline: middle; font-size: 10.2px;" transform="translate(59.83869934082031,123)" y="0" x="0" id="text-entity-User-818c511a-4a32-5484-ba70-875d765a9175-attr-5-name" class="er entityLabel">role</text><rect height="22" width="24.015625" y="112" x="124.1993408203125" class="er attributeBoxOdd"/><text style="dominant-baseline: middle; font-size: 10.2px;" transform="translate(129.1993408203125,123)" y="0" x="0" id="text-entity-User-818c511a-4a32-5484-ba70-875d765a9175-attr-5-comment" class="er entityLabel"/><rect height="22" width="54.83869934082031" y="134" x="0" class="er attributeBoxEven"/><text style="dominant-baseline: middle; font-size: 10.2px;" transform="translate(5,145)" y="0" x="0" id="text-entity-User-818c511a-4a32-5484-ba70-875d765a9175-attr-6-type" class="er entityLabel">String</text><rect height="22" width="69.36064147949219" y="134" x="54.83869934082031" class="er attributeBoxEven"/><text style="dominant-baseline: middle; font-size: 10.2px;" transform="translate(59.83869934082031,145)" y="0" x="0" id="text-entity-User-818c511a-4a32-5484-ba70-875d765a9175-attr-6-name" class="er entityLabel">refreshToken</text><rect height="22" width="24.015625" y="134" x="124.1993408203125" class="er attributeBoxEven"/><text style="dominant-baseline: middle; font-size: 10.2px;" transform="translate(129.1993408203125,145)" y="0" x="0" id="text-entity-User-818c511a-4a32-5484-ba70-875d765a9175-attr-6-comment" class="er entityLabel">❓</text></g><g transform="translate(324.21628189086914,276 )" id="entity-Crop-c4630aa1-a4af-5428-a0ab-b9b15093bb9f"><rect height="178" width="173.32644653320312" y="0" x="0" class="er entityBox"/><text style="dominant-baseline: middle; text-anchor: middle; font-size: 12px;" transform="translate(86.66322326660156,12)" y="0" x="0" id="text-entity-Crop-c4630aa1-a4af-5428-a0ab-b9b15093bb9f" class="er entityLabel">Crop</text><rect height="22" width="71.07002258300781" y="24" x="0" class="er attributeBoxOdd"/><text style="dominant-baseline: middle; font-size: 10.2px;" transform="translate(5,35)" y="0" x="0" id="text-entity-Crop-c4630aa1-a4af-5428-a0ab-b9b15093bb9f-attr-1-type" class="er entityLabel">String</text><rect height="22" width="78.24079895019531" y="24" x="71.07002258300781" class="er attributeBoxOdd"/><text style="dominant-baseline: middle; font-size: 10.2px;" transform="translate(76.07002258300781,35)" y="0" x="0" id="text-entity-Crop-c4630aa1-a4af-5428-a0ab-b9b15093bb9f-attr-1-name" class="er entityLabel">id</text><rect height="22" width="24.015625" y="24" x="149.31082153320312" class="er attributeBoxOdd"/><text style="dominant-baseline: middle; font-size: 10.2px;" transform="translate(154.31082153320312,35)" y="0" x="0" id="text-entity-Crop-c4630aa1-a4af-5428-a0ab-b9b15093bb9f-attr-1-comment" class="er entityLabel">🗝️</text><rect height="22" width="71.07002258300781" y="46" x="0" class="er attributeBoxEven"/><text style="dominant-baseline: middle; font-size: 10.2px;" transform="translate(5,57)" y="0" x="0" id="text-entity-Crop-c4630aa1-a4af-5428-a0ab-b9b15093bb9f-attr-2-type" class="er entityLabel">String</text><rect height="22" width="78.24079895019531" y="46" x="71.07002258300781" class="er attributeBoxEven"/><text style="dominant-baseline: middle; font-size: 10.2px;" transform="translate(76.07002258300781,57)" y="0" x="0" id="text-entity-Crop-c4630aa1-a4af-5428-a0ab-b9b15093bb9f-attr-2-name" class="er entityLabel">name</text><rect height="22" width="24.015625" y="46" x="149.31082153320312" class="er attributeBoxEven"/><text style="dominant-baseline: middle; font-size: 10.2px;" transform="translate(154.31082153320312,57)" y="0" x="0" id="text-entity-Crop-c4630aa1-a4af-5428-a0ab-b9b15093bb9f-attr-2-comment" class="er entityLabel"/><rect height="22" width="71.07002258300781" y="68" x="0" class="er attributeBoxOdd"/><text style="dominant-baseline: middle; font-size: 10.2px;" transform="translate(5,79)" y="0" x="0" id="text-entity-Crop-c4630aa1-a4af-5428-a0ab-b9b15093bb9f-attr-3-type" class="er entityLabel">String</text><rect height="22" width="78.24079895019531" y="68" x="71.07002258300781" class="er attributeBoxOdd"/><text style="dominant-baseline: middle; font-size: 10.2px;" transform="translate(76.07002258300781,79)" y="0" x="0" id="text-entity-Crop-c4630aa1-a4af-5428-a0ab-b9b15093bb9f-attr-3-name" class="er entityLabel">scientificName</text><rect height="22" width="24.015625" y="68" x="149.31082153320312" class="er attributeBoxOdd"/><text style="dominant-baseline: middle; font-size: 10.2px;" transform="translate(154.31082153320312,79)" y="0" x="0" id="text-entity-Crop-c4630aa1-a4af-5428-a0ab-b9b15093bb9f-attr-3-comment" class="er entityLabel"/><rect height="22" width="71.07002258300781" y="90" x="0" class="er attributeBoxEven"/><text style="dominant-baseline: middle; font-size: 10.2px;" transform="translate(5,101)" y="0" x="0" id="text-entity-Crop-c4630aa1-a4af-5428-a0ab-b9b15093bb9f-attr-4-type" class="er entityLabel">Climates</text><rect height="22" width="78.24079895019531" y="90" x="71.07002258300781" class="er attributeBoxEven"/><text style="dominant-baseline: middle; font-size: 10.2px;" transform="translate(76.07002258300781,101)" y="0" x="0" id="text-entity-Crop-c4630aa1-a4af-5428-a0ab-b9b15093bb9f-attr-4-name" class="er entityLabel">climate</text><rect height="22" width="24.015625" y="90" x="149.31082153320312" class="er attributeBoxEven"/><text style="dominant-baseline: middle; font-size: 10.2px;" transform="translate(154.31082153320312,101)" y="0" x="0" id="text-entity-Crop-c4630aa1-a4af-5428-a0ab-b9b15093bb9f-attr-4-comment" class="er entityLabel"/><rect height="22" width="71.07002258300781" y="112" x="0" class="er attributeBoxOdd"/><text style="dominant-baseline: middle; font-size: 10.2px;" transform="translate(5,123)" y="0" x="0" id="text-entity-Crop-c4630aa1-a4af-5428-a0ab-b9b15093bb9f-attr-5-type" class="er entityLabel">ReviewStatus</text><rect height="22" width="78.24079895019531" y="112" x="71.07002258300781" class="er attributeBoxOdd"/><text style="dominant-baseline: middle; font-size: 10.2px;" transform="translate(76.07002258300781,123)" y="0" x="0" id="text-entity-Crop-c4630aa1-a4af-5428-a0ab-b9b15093bb9f-attr-5-name" class="er entityLabel">status</text><rect height="22" width="24.015625" y="112" x="149.31082153320312" class="er attributeBoxOdd"/><text style="dominant-baseline: middle; font-size: 10.2px;" transform="translate(154.31082153320312,123)" y="0" x="0" id="text-entity-Crop-c4630aa1-a4af-5428-a0ab-b9b15093bb9f-attr-5-comment" class="er entityLabel"/><rect height="22" width="71.07002258300781" y="134" x="0" class="er attributeBoxEven"/><text style="dominant-baseline: middle; font-size: 10.2px;" transform="translate(5,145)" y="0" x="0" id="text-entity-Crop-c4630aa1-a4af-5428-a0ab-b9b15093bb9f-attr-6-type" class="er entityLabel">DateTime</text><rect height="22" width="78.24079895019531" y="134" x="71.07002258300781" class="er attributeBoxEven"/><text style="dominant-baseline: middle; font-size: 10.2px;" transform="translate(76.07002258300781,145)" y="0" x="0" id="text-entity-Crop-c4630aa1-a4af-5428-a0ab-b9b15093bb9f-attr-6-name" class="er entityLabel">createdAt</text><rect height="22" width="24.015625" y="134" x="149.31082153320312" class="er attributeBoxEven"/><text style="dominant-baseline: middle; font-size: 10.2px;" transform="translate(154.31082153320312,145)" y="0" x="0" id="text-entity-Crop-c4630aa1-a4af-5428-a0ab-b9b15093bb9f-attr-6-comment" class="er entityLabel"/><rect height="22" width="71.07002258300781" y="156" x="0" class="er attributeBoxOdd"/><text style="dominant-baseline: middle; font-size: 10.2px;" transform="translate(5,167)" y="0" x="0" id="text-entity-Crop-c4630aa1-a4af-5428-a0ab-b9b15093bb9f-attr-7-type" class="er entityLabel">DateTime</text><rect height="22" width="78.24079895019531" y="156" x="71.07002258300781" class="er attributeBoxOdd"/><text style="dominant-baseline: middle; font-size: 10.2px;" transform="translate(76.07002258300781,167)" y="0" x="0" id="text-entity-Crop-c4630aa1-a4af-5428-a0ab-b9b15093bb9f-attr-7-name" class="er entityLabel">updatedAt</text><rect height="22" width="24.015625" y="156" x="149.31082153320312" class="er attributeBoxOdd"/><text style="dominant-baseline: middle; font-size: 10.2px;" transform="translate(154.31082153320312,167)" y="0" x="0" id="text-entity-Crop-c4630aa1-a4af-5428-a0ab-b9b15093bb9f-attr-7-comment" class="er entityLabel"/></g><g transform="translate(518.607421875,587 )" id="entity-Constant-7fcc493b-c863-573b-9397-710734e84981"><rect height="178" width="158.9390106201172" y="0" x="0" class="er entityBox"/><text style="dominant-baseline: middle; text-anchor: middle; font-size: 12px;" transform="translate(79.4695053100586,12)" y="0" x="0" id="text-entity-Constant-7fcc493b-c863-573b-9397-710734e84981" class="er entityLabel">Constant</text><rect height="22" width="76.31944274902344" y="24" x="0" class="er attributeBoxOdd"/><text style="dominant-baseline: middle; font-size: 10.2px;" transform="translate(5,35)" y="0" x="0" id="text-entity-Constant-7fcc493b-c863-573b-9397-710734e84981-attr-1-type" class="er entityLabel">String</text><rect height="22" width="58.60394287109375" y="24" x="76.31944274902344" class="er attributeBoxOdd"/><text style="dominant-baseline: middle; font-size: 10.2px;" transform="translate(81.31944274902344,35)" y="0" x="0" id="text-entity-Constant-7fcc493b-c863-573b-9397-710734e84981-attr-1-name" class="er entityLabel">id</text><rect height="22" width="24.015625" y="24" x="134.9233856201172" class="er attributeBoxOdd"/><text style="dominant-baseline: middle; font-size: 10.2px;" transform="translate(139.9233856201172,35)" y="0" x="0" id="text-entity-Constant-7fcc493b-c863-573b-9397-710734e84981-attr-1-comment" class="er entityLabel">🗝️</text><rect height="22" width="76.31944274902344" y="46" x="0" class="er attributeBoxEven"/><text style="dominant-baseline: middle; font-size: 10.2px;" transform="translate(5,57)" y="0" x="0" id="text-entity-Constant-7fcc493b-c863-573b-9397-710734e84981-attr-2-type" class="er entityLabel">Float</text><rect height="22" width="58.60394287109375" y="46" x="76.31944274902344" class="er attributeBoxEven"/><text style="dominant-baseline: middle; font-size: 10.2px;" transform="translate(81.31944274902344,57)" y="0" x="0" id="text-entity-Constant-7fcc493b-c863-573b-9397-710734e84981-attr-2-name" class="er entityLabel">value</text><rect height="22" width="24.015625" y="46" x="134.9233856201172" class="er attributeBoxEven"/><text style="dominant-baseline: middle; font-size: 10.2px;" transform="translate(139.9233856201172,57)" y="0" x="0" id="text-entity-Constant-7fcc493b-c863-573b-9397-710734e84981-attr-2-comment" class="er entityLabel"/><rect height="22" width="76.31944274902344" y="68" x="0" class="er attributeBoxOdd"/><text style="dominant-baseline: middle; font-size: 10.2px;" transform="translate(5,79)" y="0" x="0" id="text-entity-Constant-7fcc493b-c863-573b-9397-710734e84981-attr-3-type" class="er entityLabel">String</text><rect height="22" width="58.60394287109375" y="68" x="76.31944274902344" class="er attributeBoxOdd"/><text style="dominant-baseline: middle; font-size: 10.2px;" transform="translate(81.31944274902344,79)" y="0" x="0" id="text-entity-Constant-7fcc493b-c863-573b-9397-710734e84981-attr-3-name" class="er entityLabel">reference</text><rect height="22" width="24.015625" y="68" x="134.9233856201172" class="er attributeBoxOdd"/><text style="dominant-baseline: middle; font-size: 10.2px;" transform="translate(139.9233856201172,79)" y="0" x="0" id="text-entity-Constant-7fcc493b-c863-573b-9397-710734e84981-attr-3-comment" class="er entityLabel"/><rect height="22" width="76.31944274902344" y="90" x="0" class="er attributeBoxEven"/><text style="dominant-baseline: middle; font-size: 10.2px;" transform="translate(5,101)" y="0" x="0" id="text-entity-Constant-7fcc493b-c863-573b-9397-710734e84981-attr-4-type" class="er entityLabel">String</text><rect height="22" width="58.60394287109375" y="90" x="76.31944274902344" class="er attributeBoxEven"/><text style="dominant-baseline: middle; font-size: 10.2px;" transform="translate(81.31944274902344,101)" y="0" x="0" id="text-entity-Constant-7fcc493b-c863-573b-9397-710734e84981-attr-4-name" class="er entityLabel">comment</text><rect height="22" width="24.015625" y="90" x="134.9233856201172" class="er attributeBoxEven"/><text style="dominant-baseline: middle; font-size: 10.2px;" transform="translate(139.9233856201172,101)" y="0" x="0" id="text-entity-Constant-7fcc493b-c863-573b-9397-710734e84981-attr-4-comment" class="er entityLabel"/><rect height="22" width="76.31944274902344" y="112" x="0" class="er attributeBoxOdd"/><text style="dominant-baseline: middle; font-size: 10.2px;" transform="translate(5,123)" y="0" x="0" id="text-entity-Constant-7fcc493b-c863-573b-9397-710734e84981-attr-5-type" class="er entityLabel">ConstantTypes</text><rect height="22" width="58.60394287109375" y="112" x="76.31944274902344" class="er attributeBoxOdd"/><text style="dominant-baseline: middle; font-size: 10.2px;" transform="translate(81.31944274902344,123)" y="0" x="0" id="text-entity-Constant-7fcc493b-c863-573b-9397-710734e84981-attr-5-name" class="er entityLabel">type</text><rect height="22" width="24.015625" y="112" x="134.9233856201172" class="er attributeBoxOdd"/><text style="dominant-baseline: middle; font-size: 10.2px;" transform="translate(139.9233856201172,123)" y="0" x="0" id="text-entity-Constant-7fcc493b-c863-573b-9397-710734e84981-attr-5-comment" class="er entityLabel"/><rect height="22" width="76.31944274902344" y="134" x="0" class="er attributeBoxEven"/><text style="dominant-baseline: middle; font-size: 10.2px;" transform="translate(5,145)" y="0" x="0" id="text-entity-Constant-7fcc493b-c863-573b-9397-710734e84981-attr-6-type" class="er entityLabel">DateTime</text><rect height="22" width="58.60394287109375" y="134" x="76.31944274902344" class="er attributeBoxEven"/><text style="dominant-baseline: middle; font-size: 10.2px;" transform="translate(81.31944274902344,145)" y="0" x="0" id="text-entity-Constant-7fcc493b-c863-573b-9397-710734e84981-attr-6-name" class="er entityLabel">createdAt</text><rect height="22" width="24.015625" y="134" x="134.9233856201172" class="er attributeBoxEven"/><text style="dominant-baseline: middle; font-size: 10.2px;" transform="translate(139.9233856201172,145)" y="0" x="0" id="text-entity-Constant-7fcc493b-c863-573b-9397-710734e84981-attr-6-comment" class="er entityLabel"/><rect height="22" width="76.31944274902344" y="156" x="0" class="er attributeBoxOdd"/><text style="dominant-baseline: middle; font-size: 10.2px;" transform="translate(5,167)" y="0" x="0" id="text-entity-Constant-7fcc493b-c863-573b-9397-710734e84981-attr-7-type" class="er entityLabel">DateTime</text><rect height="22" width="58.60394287109375" y="156" x="76.31944274902344" class="er attributeBoxOdd"/><text style="dominant-baseline: middle; font-size: 10.2px;" transform="translate(81.31944274902344,167)" y="0" x="0" id="text-entity-Constant-7fcc493b-c863-573b-9397-710734e84981-attr-7-name" class="er entityLabel">updatedAt</text><rect height="22" width="24.015625" y="156" x="134.9233856201172" class="er attributeBoxOdd"/><text style="dominant-baseline: middle; font-size: 10.2px;" transform="translate(139.9233856201172,167)" y="0" x="0" id="text-entity-Constant-7fcc493b-c863-573b-9397-710734e84981-attr-7-comment" class="er entityLabel"/></g><rect height="14" width="55.66796875" y="196.0960693359375" x="124.61439514160156" class="er relationshipLabelBox"/><text style="text-anchor: middle; dominant-baseline: middle; font-size: 12px;" y="203.0960693359375" x="152.44837951660156" id="rel1" class="er relationshipLabel">enum:role</text><rect height="14" width="28.73046875" y="228.27557373046875" x="266.282470703125" class="er relationshipLabelBox"/><text style="text-anchor: middle; dominant-baseline: middle; font-size: 12px;" y="235.27557373046875" x="280.647705078125" id="rel2" class="er relationshipLabel">crops</text><rect height="14" width="79.1796875" y="220.0327911376953" x="324.4772644042969" class="er relationshipLabelBox"/><text style="text-anchor: middle; dominant-baseline: middle; font-size: 12px;" y="227.0327911376953" x="364.0671081542969" id="rel3" class="er relationshipLabel">reviewedCrops</text><rect height="14" width="74.951171875" y="494.111328125" x="292.391357421875" class="er relationshipLabelBox"/><text style="text-anchor: middle; dominant-baseline: middle; font-size: 12px;" y="501.111328125" x="329.866943359375" id="rel4" class="er relationshipLabel">enum:climate</text><rect height="14" width="66.259765625" y="471.48486328125" x="123.31546020507812" class="er relationshipLabelBox"/><text style="text-anchor: middle; dominant-baseline: middle; font-size: 12px;" y="478.48486328125" x="156.44534301757812" id="rel5" class="er relationshipLabel">enum:status</text><rect height="14" width="23.958984375" y="215.53526306152344" x="438.5291442871094" class="er relationshipLabelBox"/><text style="text-anchor: middle; dominant-baseline: middle; font-size: 12px;" y="222.53526306152344" x="450.5086364746094" id="rel6" class="er relationshipLabel">user</text><rect height="14" width="48.52734375" y="196.34080505371094" x="491.01397705078125" class="er relationshipLabelBox"/><text style="text-anchor: middle; dominant-baseline: middle; font-size: 12px;" y="203.34080505371094" x="515.2776489257812" id="rel7" class="er relationshipLabel">reviewer</text><rect height="14" width="51.171875" y="506.597900390625" x="520.3956298828125" class="er relationshipLabelBox"/><text style="text-anchor: middle; dominant-baseline: middle; font-size: 12px;" y="513.597900390625" x="545.9815673828125" id="rel8" class="er relationshipLabel">constants</text><rect height="14" width="58.38671875" y="824.5" x="568.883544921875" class="er relationshipLabelBox"/><text style="text-anchor: middle; dominant-baseline: middle; font-size: 12px;" y="831.5" x="598.076904296875" id="rel9" class="er relationshipLabel">enum:type</text><rect height="14" width="24.044921875" y="473.7480773925781" x="585.3001098632812" class="er relationshipLabelBox"/><text style="text-anchor: middle; dominant-baseline: middle; font-size: 12px;" y="480.7480773925781" x="597.3225708007812" id="rel10" class="er relationshipLabel">crop</text></svg>